<svg xmlns="http://www.w3.org/2000/svg" viewBox="0 0 474 300"><g transform="matrix(1 0 0 1 0 0)"  ><g style=""   ><g transform="matrix(1 0 0 1 237 150)"  ><g style=""   ><g transform="matrix(1 0 0 1 0 -49.36)"  ><path style="stroke: rgb(255,255,255); stroke-width: 1; stroke-dasharray: none; stroke-linecap: butt; stroke-dashoffset: 0; stroke-linejoin: miter; stroke-miterlimit: 4; fill: rgb(255,142,77); fill-rule: nonzero; opacity: 1;"  transform=" translate(-237, -100.64)" d="M 357 132 C 357 81.93148674960821 325.91357184729793 37.12517319931469 279.0141066477751 19.595307737668833 C 232.11464144825229 2.0654422760229636 179.2604048337832 15.496801893055093 146.41975262351036 53.2902878596679 C 113.57910041323751 91.0837738262807 107.65513633415546 145.29519696615105 131.5584237945967 189.28938826100463 L 166.70561586306445 170.19292550733635 C 150.77009088943697 140.86346464410062 154.7194002754917 104.72251588418713 176.61316841567358 79.52685857311192 C 198.50693655585548 54.331201262036714 233.74309429883485 45.37696151734865 265.00940443185004 57.06353849177921 C 296.2757145648653 68.75011546620978 317 98.62099116640545 317 131.99999999999997 Z" stroke-linecap="round" /></g><g transform="matrix(1 0 0 1 -16.03 64.09)"  ><path style="stroke: rgb(255,255,255); stroke-width: 1; stroke-dasharray: none; stroke-linecap: butt; stroke-dashoffset: 0; stroke-linejoin: miter; stroke-miterlimit: 4; fill: rgb(61,242,255); fill-rule: nonzero; opacity: 1;"  transform=" translate(-220.97, -214.09)" d="M 136.9527600111873 198.26122373319797 C 154.7245849894099 225.0947462439601 182.53064289301358 243.66451911750548 214.1255134501567 249.79965137928482 C 245.7203840072998 255.93478364106417 278.45546001503374 249.12096536630023 304.97823188685993 230.8886241664647 L 282.3188212579066 197.9257494443098 C 264.63697334335586 210.08064357753346 242.81358933819985 214.62318909404277 221.75034230010448 210.5331009195232 C 200.68709526200905 206.44301274500364 182.14972332627326 194.06316416264005 170.3018400074582 176.1741491554653 Z" stroke-linecap="round" /></g><g transform="matrix(1 0 0 1 85.22 31.78)"  ><path style="stroke: rgb(255,255,255); stroke-width: 1; stroke-dasharray: none; stroke-linecap: butt; stroke-dashoffset: 0; stroke-linejoin: miter; stroke-miterlimit: 4; fill: rgb(85,85,231); fill-rule: nonzero; opacity: 1;"  transform=" translate(-322.22, -181.78)" d="M 313.3382656798633 224.58762980544756 C 338.17105715797305 204.11305628615602 353.73825420250205 174.5212382127352 356.54336377100947 142.458689129719 L 316.6955758473396 138.97245941981265 C 314.825502801668 160.34749214182347 304.4473714386487 180.07537085743735 287.89217711990887 193.72508653696505 Z" stroke-linecap="round" /></g></g></g></g></g></svg>