<svg xmlns="http://www.w3.org/2000/svg" width="16" height="16"  viewBox="0 0 16 16"><g transform="matrix(1 0 0 1 0 0)"  ><g style=""   ><g transform="matrix(0.67 0 0 0.67 8 8)"  ><path style="stroke: none; stroke-width: 1; stroke-dasharray: none; stroke-linecap: butt; stroke-dashoffset: 0; stroke-linejoin: miter; stroke-miterlimit: 4; fill: rgb(255,255,255); fill-rule: nonzero; opacity: 1;"  transform=" translate(-12, -12)" d="M 11 21 L 11 3 C 11 2.44772 11.4477 2 12 2 C 12.5523 2 13 2.44772 13 3 L 13 21 C 13 21.5523 12.5523 22 12 22 C 11.4477 22 11 21.5523 11 21 Z" stroke-linecap="round" /></g><g transform="matrix(0.67 0 0 0.67 8 8)"  ><path style="stroke: none; stroke-width: 1; stroke-dasharray: none; stroke-linecap: butt; stroke-dashoffset: 0; stroke-linejoin: miter; stroke-miterlimit: 4; fill: rgb(255,255,255); fill-rule: nonzero; opacity: 1;"  transform=" translate(-12, -12)" d="M 20 5 C 20 4.44772 19.5523 4 19 4 L 5 4 C 4.44772 4 4 4.44772 4 5 L 4 19 C 4 19.5523 4.44772 20 5 20 L 19 20 C 19.5523 20 20 19.5523 20 19 L 20 5 Z M 22 19 C 22 20.6569 20.6569 22 19 22 L 5 22 C 3.34315 22 2 20.6569 2 19 L 2 5 C 2 3.34315 3.34315 2 5 2 L 19 2 C 20.6569 2 22 3.34315 22 5 L 22 19 Z" stroke-linecap="round" /></g><g transform="matrix(0.67 0 0 0.67 8 6)"  ><path style="stroke: none; stroke-width: 1; stroke-dasharray: none; stroke-linecap: butt; stroke-dashoffset: 0; stroke-linejoin: miter; stroke-miterlimit: 4; fill: rgb(255,255,255); fill-rule: nonzero; opacity: 1;"  transform=" translate(-12, -9)" d="M 21 8 C 21.5523 8 22 8.44772 22 9 C 22 9.55228 21.5523 10 21 10 L 3 10 C 2.44772 10 2 9.55228 2 9 C 2 8.44772 2.44772 8 3 8 L 21 8 Z" stroke-linecap="round" /></g><g transform="matrix(0.67 0 0 0.67 8 10)"  ><path style="stroke: none; stroke-width: 1; stroke-dasharray: none; stroke-linecap: butt; stroke-dashoffset: 0; stroke-linejoin: miter; stroke-miterlimit: 4; fill: rgb(255,255,255); fill-rule: nonzero; opacity: 1;"  transform=" translate(-12, -15)" d="M 21 14 C 21.5523 14 22 14.4477 22 15 C 22 15.5523 21.5523 16 21 16 L 3 16 C 2.44772 16 2 15.5523 2 15 C 2 14.4477 2.44772 14 3 14 L 21 14 Z" stroke-linecap="round" /></g></g></g></svg>