<?xml version="1.0" encoding="UTF-8"?>
<!-- Generator: visioncortex VTracer 0.6.12 -->
<svg version="1.1" xmlns="http://www.w3.org/2000/svg" viewBox="0 750 2000 550" width="2000" height="550">
<path d="M0 0 C1.1911727625131334 -0.0029711222648529656 2.3823455250263237 -0.005942244529705931 3.6096144318580627 -0.009003400802612305 C6.903586317176064 -0.016160094279143777 10.197506017714772 -0.018860879373960415 13.491481900215149 -0.019600868225097656 C17.049304568812545 -0.021458027313997263 20.607116080064714 -0.029008791604042017 24.164932250976563 -0.035736083984375 C31.94013590619602 -0.049294555769279214 39.71533438757433 -0.055340586242778045 47.49054789543152 -0.059746742248535156 C52.35134092031126 -0.06251405392538345 57.21213197127088 -0.06675235728130247 62.07292366027832 -0.07125091552734375 C75.54720274486851 -0.0834416220852745 89.02148025324755 -0.0937404914295712 102.49576473236084 -0.09712600708007813 C103.35750398848205 -0.09734557315709935 104.21924324460326 -0.09756513923412058 105.10709581151605 -0.09779135882854462 C105.97083152275536 -0.09800963655118267 106.83456723399456 -0.09822791427370703 107.72447675466537 -0.09845280647277832 C109.47456673859938 -0.09889626314850375 111.22465672174894 -0.09934282639642333 112.97474670410156 -0.09979248046875 C113.40879402939231 -0.09990319535131675 113.40879402939231 -0.09990319535131675 115.60533655434847 -0.10046347975730896 C129.6555682848072 -0.10440720589008379 143.70574801671006 -0.1218491161592965 157.75595968216658 -0.1451520025730133 C172.20233914036004 -0.1689172376152328 186.64869257013362 -0.18133024980807022 201.09509187936783 -0.1824939250946045 C209.1975373568593 -0.18340792071239775 217.29991511539788 -0.18909024701747512 225.40234184265137 -0.20731353759765625 C232.30518291669034 -0.22278467997546159 239.2079353483988 -0.22779402139190097 246.11079048365355 -0.219575434923172 C249.626725752148 -0.21569322822790582 253.14248290985347 -0.21647795940316428 256.6583957672119 -0.23063278198242188 C286.18132432690595 -0.32932256608103216 314.98755785822163 3.741357362005715 337.17762756347656 25.15606689453125 C337.8260260009765 25.810910644531305 338.4744244384765 26.465754394531245 339.14247131347656 27.14044189453125 C340.0087213134766 27.965441894531295 340.87497131347664 28.790441894531227 341.76747131347656 29.64044189453125 C342.1593463134766 30.052941894531273 342.1593463134766 30.052941894531273 344.14247131347656 32.14044189453125 C344.73415100097657 32.748879394531286 345.3258306884766 33.35731689453121 345.93544006347656 33.98419189453125 C367.06945798231334 56.54894603611331 370.7748972784033 82.87149312937322 370.6653699874878 112.39633655548096 C370.6562162430273 116.05559471584604 370.67033967059 119.71478032756136 370.68128967285156 123.3740234375 C370.69897077507426 130.51962319135703 370.6952817617537 137.66505381281718 370.6836391091347 144.8106598854065 C370.67456372020456 150.62390931099412 370.6733984199818 156.4371117155548 370.677734375 162.2503662109375 C370.6783473071456 163.0813136875629 370.6789602392912 163.9122611641884 370.67959174513817 164.76838886737823 C370.680870792434 166.4570393697627 370.68216764885915 168.14568985874962 370.68348211050034 169.8343403339386 C370.6948574101435 185.62680167151143 370.6818222824139 201.4191697627275 370.66028064489365 217.21161580085754 C370.6424124401808 230.72895343660457 370.6455174089656 244.24615361161705 370.66395568847656 257.76348876953125 C370.6854165203563 273.5038090532162 370.6937590590451 289.24404784722356 370.68150663375854 304.9843807220459 C370.68023258925905 306.6664263282287 370.6789751030444 308.34847194703707 370.677734375 310.030517578125 C370.6774258239567 310.44419477999213 370.6774258239567 310.44419477999213 370.67586436867714 312.5376521348953 C370.672427064462 318.3362787390329 370.6782046417833 324.1348531613944 370.6876525878906 329.9334716796875 C370.6989321224005 337.0110201094874 370.69570856900623 344.08839135524363 370.67452961206436 351.1659197807312 C370.66409851350045 354.7691671201119 370.65975938949146 358.3721202760146 370.6731262207031 361.9753646850586 C370.778296286133 392.8711530490484 365.10731261135265 418.256919021459 343.14247131347656 441.14044189453125 C342.3174713134765 442.0066918945313 341.4924713134766 442.8729418945313 340.64247131347656 443.76544189453125 C339.8174713134765 444.5491918945313 338.9924713134766 445.33294189453136 338.14247131347656 446.14044189453125 C337.56883850097654 446.72052001953125 336.9952056884765 447.30059814453125 336.40419006347656 447.89825439453125 C320.34214455415554 463.32507776506554 297.49134426867613 471.46048404817293 275.5263977050781 471.4145965576172 C274.2777574914694 471.4198332363367 273.0291172778607 471.42506991505616 271.74263948202133 471.4304652810097 C268.2974196144273 471.4445655025786 264.85229030244045 471.4463100974565 261.40704572200775 471.4458683729172 C257.6828797108644 471.4475237204683 253.95875024008706 471.4606037401322 250.23460388183594 471.47206115722656 C242.09989063064552 471.4948571005275 233.9652035585949 471.50282627156867 225.8304626941681 471.5078876018524 C220.74350235085262 471.51115160685185 215.6565495168511 471.5176784070959 210.56959342956543 471.52488899230957 C196.46387126864357 471.54444963603305 182.35815606738691 471.5608563947667 168.25241947174072 471.56376552581787 C167.80156324787066 471.5638593107649 167.80156324787066 471.5638593107649 165.51995750889182 471.56433391943574 C163.6922368610982 471.5647001523366 161.86451621279497 471.5650638508823 160.03679556399584 471.5654250308871 C159.58320056851954 471.56551643643525 159.58320056851954 471.56551643643525 157.28773498535156 471.56597900390625 C156.3794273518771 471.5661595530064 155.47111971840263 471.5663401021063 154.5352876111865 471.5665261223912 C139.83337312166623 471.57006412115015 125.13160543355889 471.59706547312635 110.42974180728197 471.6344768926501 C95.30753619753665 471.67264743681517 80.18540325268356 471.69192365048866 65.06314843893051 471.6922250390053 C56.58391659558754 471.6928077215223 48.104859804744024 471.7011768384607 39.62567329406738 471.73022270202637 C32.402296630552314 471.75485419071856 25.179158836720035 471.76194091323987 17.955751426517963 471.74697517603636 C14.277425096338675 471.7398533761177 10.59956928786346 471.7404557764569 6.921297073364258 471.7633857727051 C-23.08735322139728 471.93905753752324 -48.76452165894557 465.64589810332245 -71.03184509277344 444.38385009765625 C-89.19978907338759 426.4271612796074 -100.97551237800249 401.91671833990404 -101.13433969020844 376.13395833969116 C-101.13124248623848 375.0158623170853 -101.12814528226852 373.8977662944794 -101.12495422363281 372.74578857421875 C-101.12948533654213 371.53304590702055 -101.13401644945145 370.32030323982235 -101.13868486881256 369.0708107948303 C-101.14910101673658 365.73041442643625 -101.15066402980852 362.39023460481553 -101.14829611778259 359.0498375892639 C-101.14788587667078 355.4368046007669 -101.15894694898222 351.8238030335906 -101.16841125488281 348.2107849121094 C-101.18497922101096 341.14080857956674 -101.19051894561628 334.07086560874404 -101.19163601100445 327.00087147951126 C-101.19258874239927 321.24801779721156 -101.19671025597552 315.4951750498967 -101.20303726196289 309.74232482910156 C-101.2206403181626 293.4019992280764 -101.2298779151769 277.0616998272037 -101.228376314044 260.72136467695236 C-101.22829640164971 259.8416230493783 -101.22821648925543 258.9618814218045 -101.22813415527344 258.05548095703125 C-101.22805239394307 257.17465435802933 -101.22797063261271 256.2938277590274 -101.22788639366627 255.38630944490433 C-101.22707436650853 241.12743599843475 -101.24619346619758 226.86866840593666 -101.27441088855267 212.60982555150986 C-101.3032112699349 197.93959355246886 -101.31694717238753 183.26941304589775 -101.31522333621979 168.59915208816528 C-101.31456176848926 160.3748276607846 -101.31995082776803 152.150614125625 -101.34157943725586 143.9263153076172 C-101.3598859626417 136.9207400391325 -101.36406174782348 129.91532589346275 -101.35056059062481 122.909736931324 C-101.34407749717437 119.34285535418064 -101.34374207240529 115.77628200698985 -101.36126708984375 112.20943069458008 C-101.51546731962512 78.65693301884767 -94.36844300568345 52.507945723793455 -70.79502868652344 27.64044189453125 C-51.717379041142635 9.035791827135085 -26.382834527963155 -0.02061815631407171 0 0 Z " fill="#123572" transform="translate(300.85752868652344,763.8595581054688)"/>
<path d="M0 0 C0.9213070678711119 -0.01275970458982556 1.8426141357422239 -0.02551940917965112 2.791839599609375 -0.038665771484375 C3.2861396789550668 -0.03977859497069858 3.2861396789550668 -0.03977859497069858 5.78759765625 -0.04541015625 C6.810921936035129 -0.05206695556637442 7.834246215820315 -0.05872375488286252 8.888580322265625 -0.065582275390625 C11.052166789506202 -0.07570164169635518 13.21578442323414 -0.0803995168757865 15.37939453125 -0.080078125 C18.68265456835627 -0.08444751658350924 21.984574288799195 -0.12076525067379862 25.28759765625 -0.15869140625 C27.39175976349793 -0.16456050518308984 29.49592820437988 -0.16852927434945286 31.60009765625 -0.17041015625 C32.09237350463866 -0.1775956726073673 32.09237350463866 -0.1775956726073673 34.583587646484375 -0.213958740234375 C41.67964015400406 -0.16688746509191787 45.22603042741912 1.3665152014566502 50.45574951171875 6.29833984375 C53.17252405275548 10.643335605984817 52.883673876615774 14.419826242786144 52.8408203125 19.44921875 C52.84794540405272 20.469254913330133 52.855070495605446 21.48929107666015 52.86241149902344 22.540237426757813 C52.88169184663053 25.90771858235746 52.87341391963412 29.2745718201179 52.86572265625 32.64208984375 C52.875626318235845 34.98189209387215 52.88756629664442 37.32168653904955 52.901458740234375 39.661468505859375 C52.93384102327718 45.81867793488118 52.94421531504611 51.975709399024254 52.94830322265625 58.13299560546875 C52.95705639585674 67.9959120191869 52.99244744388329 77.85868218488781 53.04047775268555 87.72147750854492 C53.05309986701508 91.17103221840978 53.05230181489617 94.62040359371997 53.050201416015625 98.06997680664063 C53.05677944513093 100.17686099474736 53.063785248262775 102.28374390574402 53.0712890625 104.390625 C53.067165069580085 105.35381149291993 53.06304107666017 106.31699798583986 53.05879211425781 107.30937194824219 C53.06148353576657 107.74956413269047 53.06148353576657 107.74956413269047 53.075103759765625 109.97720336914063 C53.07543924331662 110.74225000381466 53.07577472686768 111.50729663848881 53.076120376586914 112.2955265045166 C53.32666015625 114.29052734375 53.32666015625 114.29052734375 55.32666015625 117.29052734375 C57.82666015625 117.60302734375 57.82666015625 117.60302734375 60.32666015625 117.29052734375 C63.11482723073027 114.50236026926973 62.63389102660915 111.91143607664856 62.6455078125 108.1787109375 C62.65053062438966 107.81280601501464 62.65053062438966 107.81280601501464 62.67594909667969 105.96110534667969 C62.70689251658155 103.537066665216 62.72384689208252 101.11313896419324 62.74072265625 98.68896484375 C62.75942536514452 97.01029497793581 62.77899809569965 95.33163459670993 62.799407958984375 93.65298461914063 C62.85083010646804 89.23072899311762 62.89040167339613 84.80844285171906 62.92755126953125 80.38604736328125 C62.96752789697916 75.87496327407996 63.018649076820566 71.36400721681014 63.06884765625 66.85302734375 C63.16572622217291 57.99895048475173 63.2500926490826 49.144801500737344 63.32666015625 40.29052734375 C65.24557087665141 40.272522993404095 67.16453052161893 40.25968376012827 69.08349609375 40.2490234375 C70.15210876464846 40.24131927490237 71.22072143554686 40.23361511230473 72.32171630859375 40.225677490234375 C99.02179570323756 40.801893328326855 124.74021729143908 59.517898301373066 142.61572265625 77.60693359375 C175.71942766733423 113.33081602849154 170.32666015625 158.47112560869232 170.32666015625 205.29052734375 C70.33666015624999 205.29052734375 -29.653339843750018 205.29052734375 -132.67333984375 205.29052734375 C-132.67333984375 106.36661030997618 -132.67333984375 106.36661030997618 -99.42333984375 71.60302734375 C-79.54523840458069 52.394974267698785 -53.38806924565063 40.29052734375 -25.67333984375 40.29052734375 C-25.343339843750016 65.70052734374997 -25.013339843750032 91.11052734374994 -24.67333984375 117.29052734375 C-22.363339843749998 117.29052734375 -20.053339843749995 117.29052734375 -17.67333984375 117.29052734375 C-15.596187117367379 114.17479825417604 -15.42476979148438 113.5201723775682 -15.43524169921875 109.99066162109375 C-15.432749176025368 109.11316757202144 -15.430256652832043 108.23567352294924 -15.427688598632813 107.33158874511719 C-15.434954681396505 106.37154434204103 -15.44222076416014 105.41149993896488 -15.44970703125 104.42236328125 C-15.449299163818353 103.40904434204106 -15.448891296386705 102.395725402832 -15.448471069335938 101.35169982910156 C-15.448273329718916 99.14837053521626 -15.452320885152801 96.94503776389888 -15.460075378417969 94.7417221069336 C-15.470279118491646 91.25292594387884 -15.464931739989822 87.76448825781517 -15.45465087890625 84.27569580078125 C-15.426640614650523 74.35528310181064 -15.414178343635399 64.4350705532795 -15.443359375 54.5146484375 C-15.460086866062397 48.44851893784016 -15.447772858651092 42.38302899892676 -15.416908264160156 36.31696319580078 C-15.41080281500723 34.0061494932977 -15.41567679862294 31.695279475123584 -15.431785583496094 29.38451385498047 C-15.453402087742063 26.14771905592511 -15.438079828759328 22.913007091236295 -15.41455078125 19.67626953125 C-15.42991378784177 18.72432205200198 -15.445276794433596 17.77237457275396 -15.461105346679688 16.791580200195313 C-15.371740641839779 11.024370976149044 -14.339392285211716 7.870488033078345 -10.350406646728516 3.651966094970703 C-7.007600006421114 0.9382837956909498 -4.271539005732848 0.04030406744868742 0 0 Z " fill="#113570" transform="translate(416.67333984375,847.70947265625)"/>
<path d="M0 0 C3.333980962823489 0.03979488114680407 6.6639965884931485 0.02062144935246124 9.998046875 -0.005126953125 C12.14389544034566 0.002431037091582766 14.289735301251426 0.013383364828769118 16.435546875 0.028076171875 C17.418104553222634 0.021092071533189483 18.400662231445324 0.014107971191378965 19.412994384765625 0.0069122314453125 C29.12637232970758 0.2028088858311321 36.400459256115255 3.869159299596845 43.236328125 10.688232421875 C47.93600124184161 17.19547212211728 48.104222449369445 22.871953824376305 47.896484375 30.664794921875 C47.882949218750014 31.634814453125045 47.86941406250003 32.60483398437498 47.85546875 33.604248046875 C47.82037114157896 35.97918621669828 47.771207122460225 38.35293869699524 47.708984375 40.727294921875 C48.37905517578122 40.703366699218805 49.04912597656249 40.679438476562495 49.739501953125 40.65478515625 C56.57659123428459 40.51714963346592 62.751363204017025 41.217682771643354 69.396484375 42.789794921875 C70.34910156249998 43.01239990234376 71.30171875000002 43.23500488281252 72.283203125 43.46435546875 C80.92984689788636 45.59478273570858 88.81035929081668 48.645668236722145 96.708984375 52.727294921875 C97.31145996093755 53.03538085937498 97.913935546875 53.343466796874964 98.53466796875 53.660888671875 C107.68593317023226 58.417868803570286 115.74891982635836 64.21159692439824 123.708984375 70.727294921875 C124.482421875 71.35764648437498 125.255859375 71.98799804687496 126.052734375 72.637451171875 C148.4409963370499 91.53831078983626 162.0347322663266 121.38659787775032 165.50648498535156 150.172119140625 C165.96337437605064 155.93723629900796 165.829043040692 161.72919798267014 165.806640625 167.508544921875 C165.80477240050504 168.9320063274812 165.80335040935324 170.35546838198445 165.80235290527344 171.7789306640625 C165.79855955821859 175.50083229151164 165.78875694225553 179.22269405370264 165.77764892578125 182.944580078125 C165.76736589848326 186.75235454293136 165.7628406049862 190.5601355337635 165.7578125 194.367919921875 C165.74713139935307 201.82106297151358 165.730093830256 209.2741733318867 165.708984375 216.727294921875 C166.8774389648438 216.7149682617187 168.0458935546875 216.7026416015624 169.249755859375 216.68994140625 C170.79736147048357 216.67997198776243 172.34496904131674 216.67030360367585 173.892578125 216.660888671875 C174.66098022460938 216.6519860839844 175.42938232421875 216.64308349609382 176.2210693359375 216.6339111328125 C185.0175349324379 216.5937877319161 191.35388990876174 218.30798091261045 197.79776000976563 224.579345703125 C204.08110483399219 231.6409476018007 205.4650310440918 239.10419172778984 205.373046875 248.289794921875 C205.3778305053711 249.36173095703134 205.3826141357422 250.43366699218745 205.38754272460938 251.5380859375 C205.39092473254527 253.79029825262592 205.3818423688765 256.0425608092751 205.36083984375 258.294677734375 C205.3340519671499 261.7186554161656 205.3606481370988 265.13935525769807 205.392578125 268.563232421875 C205.3892737282289 270.7637604049785 205.3828668821643 272.96428636908126 205.373046875 275.164794921875 C205.37810745239256 275.6701477050781 205.37810745239256 275.6701477050781 205.40371704101563 278.2275390625 C205.27065170518335 286.40021643003433 202.96102184529786 292.88397791152283 197.646484375 299.164794921875 C197.00710937500003 299.680419921875 196.36773437500005 300.196044921875 195.708984375 300.727294921875 C195.06960937500003 301.2635449218751 194.43023437500005 301.799794921875 193.771484375 302.352294921875 C189.37526082118666 305.2831106244173 185.62857936155615 305.97789962091724 180.38451671600342 305.98456382751465 C179.10108888804916 305.99101271986956 177.8176610600949 305.99746161222447 176.4953414797783 306.00410592556 C175.07316243627474 306.0011637159064 173.65098378211042 305.99802828492125 172.2288055419922 305.9947204589844 C170.7163877635221 305.99845692193117 169.2039719158206 306.0030584274559 167.69155913591385 306.0084511041641 C163.533901080678 306.02069704292694 159.37632339497463 306.0204187644247 155.21865141391754 306.01806235313416 C150.7352325000072 306.0176545891636 146.2518394923909 306.0286894694357 141.7684326171875 306.0381774902344 C132.983931874448 306.05479719819687 124.19945797081937 306.0602874750318 115.41494282335043 306.061402246356 C108.27506126985395 306.0623522602416 101.13518857981 306.06646021926144 93.99530982971191 306.07280349731445 C73.75649845393883 306.09041855156556 53.5177082983048 306.0996419541925 33.27888920158148 306.09814254939556 C32.18759062834084 306.09806263700125 31.096292055100207 306.09798272460694 29.971923828125 306.097900390625 C28.879294197931927 306.0978186292946 27.78666456773874 306.09773686796416 26.660924948751926 306.09765262901783 C8.951561574380833 306.09683965246495 -8.757716761726556 306.11597956884793 -26.467055536806583 306.1441771239042 C-44.64689803065255 306.1728956349418 -62.826699037638264 306.18671798752143 -81.00656479597092 306.18498957157135 C-91.21477898233752 306.18432531305075 -101.42290402307839 306.1898333057177 -111.6310977935791 306.2113456726074 C-120.32239944126457 306.2295438716776 -129.01357153397504 306.2339160045492 -137.70488397032022 306.2203268259764 C-142.13930900809783 306.21379029606646 -146.57348539867837 306.21370461657125 -151.00788688659668 306.2310333251953 C-155.0687031307985 306.24673893279123 -159.12907305646752 306.24392633347406 -163.18987824767828 306.22646506130695 C-164.65756191599826 306.2233896054561 -166.12527868585187 306.22704815216025 -167.59292332082987 306.2381852120161 C-176.76981763158645 306.3032014388648 -183.27224099354922 305.9555015140354 -190.498046875 299.867919921875 C-190.76294921875 299.55596679687505 -190.76294921875 299.55596679687505 -192.103515625 297.977294921875 C-192.37486328125 297.67049804687485 -192.37486328125 297.67049804687485 -193.748046875 296.117919921875 C-198.2881909139869 289.08357017033086 -198.7581569072227 282.5151000143435 -198.759765625 274.360107421875 C-198.76737915039064 273.2853414916992 -198.77499267578125 272.21057556152346 -198.7828369140625 271.1032409667969 C-198.79359900612147 268.83911450403093 -198.79650693832582 266.57493855477696 -198.7919921875 264.310791015625 C-198.7910204396927 260.86934615606515 -198.8326784858263 257.4301370165415 -198.876953125 253.989013671875 C-198.88216144748196 251.7793828588999 -198.88484829701503 249.56974437156532 -198.884765625 247.360107421875 C-198.90116088867188 246.343127746582 -198.91755615234376 245.32614807128903 -198.9344482421875 244.27835083007813 C-198.8665008581264 237.16292136131528 -197.35107436291335 231.64193890589172 -193.291015625 225.727294921875 C-186.78756015563573 219.460522782196 -179.91744406954453 216.35942726614667 -170.921875 216.463623046875 C-170.07431640624998 216.488759765625 -169.2267578125 216.51389648437498 -168.353515625 216.539794921875 C-167.47888671875 216.55333007812487 -166.6042578125 216.56686523437497 -165.703125 216.580810546875 C-163.56548476355533 216.61585382943963 -161.42816578793725 216.6696495128847 -159.291015625 216.727294921875 C-159.2976774597168 215.96546905517584 -159.3043392944336 215.2036431884767 -159.3112030029297 214.41873168945313 C-159.37191494878908 207.15458284180318 -159.4172898061227 199.89056111260743 -159.4464521408081 192.62622261047363 C-159.4619499221538 188.89368786617888 -159.48288763651175 185.1613668607108 -159.517333984375 181.428955078125 C-159.69378022975036 161.76467610452005 -159.70424125506258 142.84736812396295 -153.103515625 124.039794921875 C-152.80163330078125 123.16315185546875 -152.4997509765625 122.28650878906251 -152.188720703125 121.38330078125 C-141.30207506855447 90.84432021752127 -118.87094734824524 67.55772847871788 -90.291015625 52.727294921875 C-89.6142578125 52.35733398437503 -88.9375 51.98737304687495 -88.240234375 51.606201171875 C-81.36766852016586 47.94937006485145 -73.85642254288166 45.514171984384234 -66.291015625 43.727294921875 C-65.78505859375002 43.602900390624995 -65.78505859375002 43.602900390624995 -63.224609375 42.973388671875 C-55.7508763087651 41.24482694594133 -48.94634312671883 40.39120308120653 -41.291015625 40.727294921875 C-41.31196289062501 40.13303710937498 -41.33291015625002 39.538779296874964 -41.3544921875 38.926513671875 C-41.43843416583695 36.19361787082994 -41.489918439434916 33.46099434960627 -41.541015625 30.727294921875 C-41.57453125000001 29.792724609375 -41.608046875000014 28.858154296875 -41.642578125 27.895263671875 C-41.76773745621273 18.946371490165347 -39.125279065850805 13.436102950562372 -33.291015625 6.727294921875 C-23.715162591755075 -1.185887286042771 -11.72660146421265 -0.15671255648419447 0 0 Z M-28.42010498046875 17.735107421875 C-31.136879521505477 22.080103184109817 -30.848029345365774 25.856593820911144 -30.80517578125 30.885986328125 C-30.80873832702639 31.396004409790066 -30.80873832702639 31.396004409790066 -30.826766967773438 33.97700500488281 C-30.84604731538053 37.34448616048246 -30.837769388384118 40.7113393982429 -30.830078125 44.078857421875 C-30.839981786985845 46.41865967199715 -30.851921765394422 48.75845411717455 -30.865814208984375 51.098236083984375 C-30.898196492027182 57.25544551300618 -30.908570783796108 63.412476977149254 -30.91265869140625 69.56976318359375 C-30.92141186460674 79.4326795973119 -30.956802912633293 89.29544976301281 -31.004833221435547 99.15824508666992 C-31.017455335765078 102.60779979653478 -31.016657283646225 106.05717117184497 -31.014556884765625 109.50674438476563 C-31.02113491388093 111.61362857287236 -31.028140717012775 113.72051148386902 -31.03564453125 115.827392578125 C-31.031520538330085 116.79057907104493 -31.02739654541017 117.75376556396486 -31.023147583007813 118.74613952636719 C-31.028530426025384 119.62652389526363 -31.033913269042955 120.50690826416019 -31.039459228515625 121.41397094726563 C-31.039626970291124 121.79649426460264 -31.039626970291124 121.79649426460264 -31.040475845336914 123.7322940826416 C-31.291015625 125.727294921875 -31.291015625 125.727294921875 -33.291015625 128.727294921875 C-35.601015625 128.727294921875 -37.911015625000005 128.727294921875 -40.291015625 128.727294921875 C-40.621015624999984 103.31729492187503 -40.95101562499997 77.90729492187506 -41.291015625 51.727294921875 C-55.29437276785711 51.727294921875 -55.29437276785711 51.727294921875 -62.541015625 53.789794921875 C-63.34531005859378 54.01094970703127 -64.1496044921875 54.232104492187545 -64.978271484375 54.4599609375 C-93.3098454778472 62.598910301435126 -118.60528892666775 80.9931457255019 -133.4208984375 106.686767578125 C-152.5841402943451 141.5918532577124 -148.291015625 175.527443132979 -148.291015625 216.727294921875 C-48.30101562499999 216.727294921875 51.68898437500002 216.727294921875 154.708984375 216.727294921875 C154.708984375 118.89596962067014 154.708984375 118.89596962067014 126.708984375 88.727294921875 C125.92910156250002 87.87909179687495 125.14921875000005 87.030888671875 124.345703125 86.156982421875 C107.90081325374763 69.00393939827211 81.32308294161294 52.20368164190529 56.662841796875 51.66015625 C55.59912353515625 51.66813232421873 54.535405273437505 51.676108398437464 53.439453125 51.684326171875 C52.90203491210934 51.68742797851564 52.90203491210934 51.68742797851564 50.182373046875 51.703125 C49.366154785156255 51.71110107421873 48.54993652343751 51.719077148437464 47.708984375 51.727294921875 C47.704940948486296 52.19487716674803 47.704940948486296 52.19487716674803 47.684478759765625 54.561126708984375 C47.60709797897363 63.36088038681635 47.519379451993814 72.1604779072037 47.421457290649414 80.96002769470215 C47.37144522168637 85.48430674674762 47.3251158186568 90.00856188600335 47.287109375 94.532958984375 C47.25031833641867 98.89672469704851 47.20397565848123 103.26029268860725 47.15092086791992 107.6238899230957 C47.13234392462522 109.29127164216357 47.11724824307316 110.95869579535201 47.10564041137695 112.62614059448242 C47.08883404101539 114.95612725314936 47.05981370315237 117.28565780254792 47.02783203125 119.615478515625 C47.02675193786621 119.96253593444828 47.02675193786621 119.96253593444828 47.02128601074219 121.71885681152344 C46.93708869756017 126.49919059931483 46.93708869756017 126.49919059931483 44.708984375 128.727294921875 C42.208984375 129.039794921875 42.208984375 129.039794921875 39.708984375 128.727294921875 C37.631831648617435 125.61156583230115 37.46041432273438 124.95693995569309 37.47088623046875 121.42742919921875 C37.46963996887206 120.9886821746826 37.46963996887206 120.9886821746826 37.46333312988281 118.76835632324219 C37.47059921264645 117.80831192016603 37.4778652954102 116.84826751708988 37.4853515625 115.859130859375 C37.48494369506835 114.84581192016606 37.484535827636705 113.832492980957 37.48411560058594 112.78846740722656 C37.48391786096886 110.58513811334126 37.4879654164028 108.38180534202388 37.49571990966797 106.1784896850586 C37.505923649741646 102.68969352200384 37.500576271239765 99.20125583594017 37.49029541015625 95.71246337890625 C37.46228514590052 85.79205067993564 37.4498228748854 75.8718381314045 37.47900390625 65.951416015625 C37.4957313973124 59.88528651596516 37.48341738990109 53.81979657705176 37.452552795410156 47.75373077392578 C37.44644734625723 45.4429170714227 37.45132132987294 43.132047053248584 37.467430114746094 40.82128143310547 C37.48904661899206 37.584486634049995 37.47372436000933 34.349774669361295 37.4501953125 31.113037109375 C37.457876815795885 30.63706336975099 37.457876815795885 30.63706336975099 37.49674987792969 28.228347778320313 C37.40738517308978 22.461138554274044 36.375036816461716 19.30725561120323 32.386051177978516 15.088733673095703 C29.043244537671058 12.37505137381595 26.30718353698279 11.477071645573687 22.03564453125 11.436767578125 C21.574990997314444 11.430387725830087 21.574990997314444 11.430387725830087 19.243804931640625 11.398101806640625 C18.25520477294924 11.395876159667978 17.2666046142578 11.39365051269533 16.248046875 11.391357421875 C15.224722595214871 11.384700622558626 14.201398315429685 11.378043823242137 13.147064208984375 11.371185302734375 C10.983477741743798 11.361065936428531 8.81986010801586 11.356368061249213 6.65625 11.356689453125 C3.3529899628936164 11.35232006154149 0.05107024245080538 11.316002327451201 -3.251953125 11.278076171875 C-5.35611523224793 11.27220707294191 -7.460283673129879 11.268238303775547 -9.564453125 11.266357421875 C-10.549004821777316 11.251986389160152 -11.53355651855469 11.237615356445303 -12.547943115234375 11.222808837890625 C-19.64399562275412 11.269880113033082 -23.190385896169175 12.80328277958165 -28.42010498046875 17.735107421875 Z " fill="#133671" transform="translate(432.291015625,836.272705078125)"/>
<path d="M0 0 C7.549993046102827 6.808783683129377 12.749719739216175 17.7634152869972 13.578125 27.84765625 C13.865142339400336 43.705364251868104 7.347625761992504 56.15236664452709 -1.125 69.125 C-1.5755273437499682 69.84139648437497 -2.0260546874999363 70.55779296874994 -2.490234375 71.2958984375 C-5.818088121823621 76.2156475913539 -5.818088121823621 76.2156475913539 -9.73046875 76.98828125 C-12.69614863380093 76.35992532320279 -14.16561144752086 75.7766835566581 -16.4375 73.8125 C-17.021445312499964 73.33683593750004 -17.60539062500004 72.86117187499997 -18.20703125 72.37109375 C-20.347071214352354 69.3585306045893 -20.570125884697177 67.04372656596115 -20.625 63.375 C-19.03515625 60.410156250000114 -19.03515625 60.410156250000114 -16.6875 57.4375 C-12.919767778661367 52.44316824616078 -9.87604379268032 47.37014444030058 -7.125 41.75 C-6.956173095703093 41.40650512695311 -6.956173095703093 41.40650512695311 -6.101806640625 39.668212890625 C-2.4491788536537342 32.10737711263664 -1.8019977185808784 25.74373106386895 -2.625 17.375 C-4.126591575427142 13.18175879559135 -6.144544293486433 10.39016962732353 -9.8125 7.875 C-44.90781731290144 1.6358324777064581 -90.82556119531625 25.154117363575665 -118.625 44.375 C-125.96160521585205 49.56857854624832 -132.82022254683443 55.262076644090484 -139.421875 61.36328125 C-141.31600802832543 63.09285307550988 -143.25238185828243 64.7063070347001 -145.25 66.3125 C-154.18259932438525 73.98402647858961 -162.88488866794762 85.93773081460336 -163.9375 97.9375 C-163.80136083718583 104.10914204757819 -161.9928487618538 109.6832974837223 -157.8828125 114.35546875 C-147.75471649722806 123.0121243901051 -133.0575573888625 126.39803026416939 -120.4375 129.625 C-119.73920074462887 129.80632476806636 -119.04090148925786 129.98764953613272 -118.32144165039063 130.17446899414063 C-105.85087278963556 133.40978519181385 -93.32639815066238 136.4389592131938 -80.78060913085938 139.3677978515625 C-78.80819916798532 139.82945117305326 -76.83684771423395 140.29565149462928 -74.86660766601563 140.7664794921875 C-72.09535445259189 141.42602630855527 -69.32019724108966 142.06537169363537 -66.54296875 142.69921875 C-65.71421234130855 142.89970321655278 -64.88545593261722 143.10018768310556 -64.03158569335938 143.30674743652344 C-59.55876116631032 144.30124329025602 -56.77486986924532 144.74354269034347 -52.625 142.375 C-51.91037597656248 141.97845214843755 -51.195751953124955 141.5819042968751 -50.45947265625 141.17333984375 C-49.743237304687455 140.73199707031245 -49.02700195312502 140.2906542968749 -48.2890625 139.8359375 C-47.479934082031264 139.34174316406256 -46.67080566406253 138.84754882812513 -45.837158203125 138.33837890625 C-45.4102770996094 138.0762963867187 -45.4102770996094 138.0762963867187 -43.25 136.75 C-21.46287391976432 123.57877259855832 2.5657047474113597 109.95820319951986 29.0703125 114.875 C33.47780371157887 116.34974991109857 36.52846140679526 118.75213269955748 39.375 122.375 C40.552410320222634 125.82313022350922 40.321049826740136 127.9328340919376 39.375 131.375 C40.214179687500064 130.78074218749998 41.05335937500013 130.18648437499996 41.91796875 129.57421875 C49.40982474746124 124.36812165034758 57.11920809889921 119.62600161957539 65.125 115.25 C65.54986694335935 115.00745483398441 65.54986694335935 115.00745483398441 67.699951171875 113.780029296875 C73.98670006778457 110.4304475472095 79.28290406218548 109.55705235756454 86.375 110.375 C90.2642539088447 111.69900133067063 91.715484322041 113.60127248247909 93.6875 117.0625 C96.20338819538551 122.57107778263844 95.95543173520036 127.56723459910086 94.375 133.375 C95.50937500000009 132.73562500000003 96.64374999999995 132.09625000000005 97.8125 131.4375 C102.92403959373405 128.9222979776864 107.916687140563 127.37358206768113 113.546875 129.00390625 C118.31793487868254 131.1472959323405 121.57956400684498 133.88536037462973 124.375 138.375 C124.795166015625 140.667236328125 124.795166015625 140.667236328125 125.00390625 143.08203125 C125.07810791015618 143.8874536132812 125.15230957031258 144.6928759765624 125.228759765625 145.522705078125 C125.27701904296873 146.13396240234374 125.32527832031246 146.74521972656248 125.375 147.375 C144.0979482275634 139.3383660824377 163.02616336127085 131.00989656714432 178.1875 117.0625 C184.39545433095532 111.40761796398442 189.56811414964136 108.66210708191306 198.11328125 109.0546875 C202.5972170160203 109.6897181266213 204.7083521353129 111.6157621541065 207.625 114.9375 C210.31032885820423 118.67777948107027 210.82039245176043 120.74291850169129 210.375 125.375 C204.52859160970047 136.60010410937525 191.64596652709383 142.5074031117333 180.625 147.625 C177.2343265926345 149.45074721935066 176.7849725157048 150.02977109019025 175.375 153.375 C196.45369386979542 146.88337326473697 216.53018843328118 137.8952661499095 235.375 126.375 C235.95097930908196 126.04163131713858 236.52695861816414 125.70826263427739 237.12039184570313 125.36479187011719 C242.1805487016711 122.17359076218827 243.8487935006358 119.13685248735396 245.515625 113.48828125 C245.76473632812508 112.72136459350577 246.01384765624994 111.95444793701176 246.2705078125 111.16429138183594 C246.8011353862048 109.52539507419056 247.32143290636782 107.88312365439674 247.8321533203125 106.2379150390625 C249.16988667330634 101.93471828092515 250.58603752824138 97.65754556792001 252 93.37890625 C252.1401150512695 92.95244308471683 252.1401150512695 92.95244308471683 252.84918212890625 90.79428100585938 C256.85959747529387 78.71891837286262 261.6831954072579 66.75860918548403 267.375 55.375 C260.20704087191257 56.11293173535216 253.04048756207612 56.86343643567079 245.875 57.625 C244.82156402587884 57.73693695068357 243.76812805175769 57.84887390136714 242.68276977539063 57.964202880859375 C229.83907662463457 59.339140246157854 217.06026125402627 60.7640176717797 204.3671875 63.2060546875 C190.77025026252386 65.78090776278577 190.77025026252386 65.78090776278577 185.5 62.6875 C183.30757198210495 60.301622451114326 181.68008927074789 58.34770333892561 180.375 55.375 C180.8046875 52.71484375 180.8046875 52.71484375 181.375 50.375 C211.9538763384371 43.61167205691038 243.12789023317782 40.67553687967063 274.375 39.375 C274.55881225585927 38.974464111328075 274.55881225585927 38.974464111328075 275.489013671875 36.947509765625 C276.8747011952564 33.93252366801164 278.26358102800054 30.919049353205082 279.654541015625 27.906494140625 C280.2521501902761 26.610522644641833 280.8485376859089 25.313986983916152 281.443603515625 24.016845703125 C283.38540031332695 19.785394481219328 285.36313785460993 15.573642326444087 287.375 11.375 C287.6003442382812 10.899255371093773 287.6003442382812 10.899255371093773 288.74072265625 8.49169921875 C288.94656982421884 8.085080566406305 288.94656982421884 8.085080566406305 289.98828125 6.02734375 C290.3328637695313 5.335036621093764 290.6774462890626 4.642729492187527 291.032470703125 3.929443359375 C292.375 2.375 292.375 2.375 294.828857421875 1.545166015625 C298.71194940838086 1.2856478341508364 300.44132749358846 2.951531407746984 303.375 5.375 C305.7088938444979 8.235902131965076 306.46231568580083 9.488611161412564 306.097900390625 13.18798828125 C305.36434920355873 16.421955588228457 304.32485352111644 19.01782842806051 302.87109375 21.9921875 C302.3780273437501 23.010546875000045 301.88496093749995 24.028906249999977 301.376953125 25.078125 C300.8606835937501 26.124843749999968 300.34441406249994 27.17156250000005 299.8125 28.25 C299.2923632812499 29.319921874999977 298.7722265625 30.389843749999955 298.236328125 31.4921875 C296.9560481943713 34.123221485879185 295.66877581481003 36.75058322802738 294.375 39.375 C295.11846679687505 39.36452636718752 295.8619335937501 39.354052734375045 296.6279296875 39.34326171875 C359.75109649122805 38.57489035087724 359.75109649122805 38.57489035087724 381.375 55.375 C383.7262006264482 57.72620062644842 384.2955866431839 58.70792780274496 384.6875 62 C384.375 64.375 384.375 64.375 382.375 66.375 C377.5933056232402 66.26874012496091 373.84350294778596 64.80941312123718 369.4375 63 C344.08941202491087 53.10597690961083 313.2819750389922 55.11964122618883 286.375 54.375 C286.2574536132813 55.087529296875005 286.1399072265626 55.80005859375001 286.018798828125 56.5341796875 C285.34096553545805 59.52518014008672 284.33097285970643 62.03234600867302 283.07421875 64.828125 C282.83590332031235 65.36659057617192 282.83590332031235 65.36659057617192 281.6298828125 68.091552734375 C281.1126464843751 69.25759033203121 280.59541015624995 70.42362792968754 280.0625 71.625 C259.4507713608525 118.84127742276951 247.19629933783608 166.7567114496212 245.375 218.375 C240.7578125 219.578125 240.7578125 219.578125 237.3125 217.75 C230.77004534745265 212.460355812834 230.77004534745265 212.460355812834 230.008056640625 208.43798828125 C229.86635474412356 206.0287881732463 229.87477385684883 203.66268382497515 229.9375 201.25 C229.95071289062503 200.34056640625 229.96392578125005 199.43113281249998 229.9775390625 198.494140625 C230.46249403049114 179.2381953626334 233.40221797021422 160.190257024316 237.375 141.375 C237.10872802734366 141.53581054687493 237.10872802734366 141.53581054687493 235.76123046875 142.349609375 C230.4870800004669 145.53203199455356 225.20321889004617 148.69773564271873 219.9130859375 151.853515625 C217.81129104306865 153.11346039049613 215.71999817716687 154.38799271791072 213.6328125 155.671875 C201.2015503025318 163.12467008241492 185.35659946612327 172.4440681759129 170.375 169.375 C165.34140366791507 166.9906648953281 161.87503213331638 163.37506426663276 159.375 158.375 C159.15032169494452 156.83831134566935 158.96703194617044 155.29531946170482 158.8125 153.75 C158.7706054687501 153.34136718750005 158.7706054687501 153.34136718750005 158.55859375 151.2734375 C158.49800781249996 150.64695312499998 158.43742187499993 150.02046874999996 158.375 149.375 C157.87162109375004 149.68727539062502 157.36824218750007 149.99955078125004 156.849609375 150.3212890625 C154.52691238516695 151.7594025516221 152.2009900406954 153.1922193009509 149.875 154.625 C149.08351562500002 155.11613281249993 148.29203125000004 155.60726562500008 147.4765625 156.11328125 C130.27390365261226 166.68868627913162 130.27390365261226 166.68868627913162 120.375 165.375 C115.06941997913168 163.4992898916123 111.90414724092079 160.43329448184136 109.375 155.375 C108.88952939701244 152.71590228583545 108.65747737926267 150.0668432612099 108.375 147.375 C107.89144042968746 147.71756835937504 107.40788085937493 148.06013671875007 106.90966796875 148.4130859375 C104.69037904472953 149.98457381532648 102.47019678360425 151.5547950379114 100.25 153.125 C99.48945312499995 153.663828125 98.72890624999991 154.20265625000002 97.9453125 154.7578125 C95.75944349093402 156.30299576502944 93.56747429378947 157.83921131812735 91.375 159.375 C90.7856567382812 159.7977319335937 90.19631347656241 160.2204638671874 89.589111328125 160.656005859375 C86.91087578838051 162.53338223447213 85.66568825363902 163.36906758666055 82.3125 163.4375 C77.69514473370009 161.76739277601928 75.2421235770687 159.1684916221359 73.1171875 154.7734375 C72.10963605328948 150.15991245453597 73.07348488344905 146.69260291523983 74.25 142.1875 C74.64574788677123 140.5904657859653 75.0390806642065 138.99283064952215 75.4296875 137.39453125 C75.60999511718751 136.6943286132812 75.79030273437502 135.99412597656237 75.97607421875 135.272705078125 C76.375 133.375 76.375 133.375 76.375 130.375 C60.09139737416922 140.03149180432956 44.69840123212339 150.51491305724335 30.98828125 163.6640625 C26.160022779043288 168.2807972665148 26.160022779043288 168.2807972665148 22.25 168.75 C18.24305144997379 166.8336333021614 15.26620967368217 164.45250170779696 13.375 160.375 C12.525535608478322 153.79942301874485 14.013136674801899 147.78537932879135 15.8125 141.5 C16.042597656249995 140.65953124999987 16.27269531249999 139.81906249999997 16.509765625 138.953125 C17.39749461158044 135.73156937333692 18.31809352972448 132.54571941082645 19.375 129.375 C-1.4655435988097452 134.60925689923806 -18.311197453935392 143.14918602230296 -36.625 154.375 C-36.271313476562455 155.04901855468756 -35.91762695312502 155.72303710937513 -35.55322265625 156.41748046875 C-35.094799804687455 157.30838378906242 -34.63637695312502 158.19928710937506 -34.1640625 159.1171875 C-33.935656738281295 159.55732177734376 -33.935656738281295 159.55732177734376 -32.77978515625 161.78466796875 C-30.98691271213022 165.80631207701867 -30.918224224967503 167.9929901947985 -31.625 172.375 C-38.40124409855798 187.8678224103594 -56.754551537971 197.48687017447014 -71.66748046875 203.6123046875 C-75.11828479758879 204.95681862155993 -78.60182375496629 206.17200958707508 -82.125 207.3125 C-82.77138427734371 207.52430908203132 -83.41776855468754 207.73611816406242 -84.083740234375 207.954345703125 C-89.31914311200273 209.54578341246224 -94.24991507727043 210.40060485299682 -99.375 208.1875 C-103.26080940147642 205.0572646488106 -104.47236006590254 202.6615365873929 -105.0625 197.6875 C-104.57448947229318 187.28311554929087 -98.35366829351733 178.7657751290485 -91.00244140625 171.84814453125 C-84.82723208869947 166.26772426504385 -78.41744028630899 161.17814631728015 -71.625 156.375 C-72.31609863281255 156.20040252685544 -73.007197265625 156.02580505371088 -73.71923828125 155.84591674804688 C-80.30942189519999 154.17924633714802 -86.89728184164892 152.50365131918807 -93.4827880859375 150.81860160827637 C-96.86657564787151 149.95310220749252 -100.25110163564932 149.0907876220706 -103.6376953125 148.236328125 C-161.3020622232185 133.6773472501609 -161.3020622232185 133.6773472501609 -174.625 111.375 C-179.24523954119263 102.49106673429833 -180.91906054036735 92.90078633930898 -178.51953125 83.0859375 C-173.32594641107255 67.34642711477875 -162.5038938062287 54.57544102157112 -149.625 44.375 C-148.54962189757498 43.47925460340889 -147.47552809248418 42.58196630397515 -146.40234375 41.68359375 C-115.51563186408919 16.080683075092338 -39.0543896137068 -30.318539305377612 0 0 Z M-51.44921875 163.296142578125 C-52.064101562500014 163.7823608398437 -52.67898437500003 164.2685791015624 -53.3125 164.76953125 C-53.65929809570309 165.03914672851556 -53.65929809570309 165.03914672851556 -55.414306640625 166.403564453125 C-56.14383544921873 166.99226318359388 -56.873364257812455 167.58096191406253 -57.625 168.1875 C-58.374509277343805 168.7768432617188 -59.124018554687495 169.3661865234376 -59.896240234375 169.973388671875 C-66.23834566703613 174.9860144301049 -72.47655288725434 180.12690352418804 -78.625 185.375 C-77.96500000000003 185.70499999999993 -77.30500000000006 186.03500000000008 -76.625 186.375 C-64.61166622232531 181.31117853110368 -54.449790611087224 172.78810998515974 -45.625 163.375 C-48.0265580334501 162.4933021623881 -49.11409412682008 162.11701714942342 -51.44921875 163.296142578125 Z " fill="#1E4079" transform="translate(991.625,920.625)"/>
<path d="M0 0 C3.333980962823489 0.03979488114680407 6.6639965884931485 0.02062144935246124 9.998046875 -0.005126953125 C12.14389544034566 0.002431037091582766 14.289735301251426 0.013383364828769118 16.435546875 0.028076171875 C17.418104553222634 0.021092071533189483 18.400662231445324 0.014107971191378965 19.412994384765625 0.0069122314453125 C29.12637232970758 0.2028088858311321 36.400459256115255 3.869159299596845 43.236328125 10.688232421875 C47.93600124184161 17.19547212211728 48.104222449369445 22.871953824376305 47.896484375 30.664794921875 C47.882949218750014 31.634814453125045 47.86941406250003 32.60483398437498 47.85546875 33.604248046875 C47.82037114157896 35.97918621669828 47.771207122460225 38.35293869699524 47.708984375 40.727294921875 C48.37905517578122 40.703366699218805 49.04912597656249 40.679438476562495 49.739501953125 40.65478515625 C56.57659123428459 40.51714963346592 62.751363204017025 41.217682771643354 69.396484375 42.789794921875 C70.34910156249998 43.01239990234376 71.30171875000002 43.23500488281252 72.283203125 43.46435546875 C80.92984689788636 45.59478273570858 88.81035929081668 48.645668236722145 96.708984375 52.727294921875 C97.31145996093755 53.03538085937498 97.913935546875 53.343466796874964 98.53466796875 53.660888671875 C107.68593317023226 58.417868803570286 115.74891982635836 64.21159692439824 123.708984375 70.727294921875 C124.482421875 71.35764648437498 125.255859375 71.98799804687496 126.052734375 72.637451171875 C148.4409963370499 91.53831078983626 162.0347322663266 121.38659787775032 165.50648498535156 150.172119140625 C165.96337437605064 155.93723629900796 165.829043040692 161.72919798267014 165.806640625 167.508544921875 C165.80477240050504 168.9320063274812 165.80335040935324 170.35546838198445 165.80235290527344 171.7789306640625 C165.79855955821859 175.50083229151164 165.78875694225553 179.22269405370264 165.77764892578125 182.944580078125 C165.76736589848326 186.75235454293136 165.7628406049862 190.5601355337635 165.7578125 194.367919921875 C165.74713139935307 201.82106297151358 165.730093830256 209.2741733318867 165.708984375 216.727294921875 C166.8774389648438 216.7149682617187 168.0458935546875 216.7026416015624 169.249755859375 216.68994140625 C170.79736147048357 216.67997198776243 172.34496904131674 216.67030360367585 173.892578125 216.660888671875 C174.66098022460938 216.6519860839844 175.42938232421875 216.64308349609382 176.2210693359375 216.6339111328125 C185.0175349324379 216.5937877319161 191.35388990876174 218.30798091261045 197.79776000976563 224.579345703125 C204.08110483399219 231.6409476018007 205.4650310440918 239.10419172778984 205.373046875 248.289794921875 C205.3778305053711 249.36173095703134 205.3826141357422 250.43366699218745 205.38754272460938 251.5380859375 C205.39092473254527 253.79029825262592 205.3818423688765 256.0425608092751 205.36083984375 258.294677734375 C205.3340519671499 261.7186554161656 205.3606481370988 265.13935525769807 205.392578125 268.563232421875 C205.3892737282289 270.7637604049785 205.3828668821643 272.96428636908126 205.373046875 275.164794921875 C205.37810745239256 275.6701477050781 205.37810745239256 275.6701477050781 205.40371704101563 278.2275390625 C205.27065170518335 286.40021643003433 202.96102184529786 292.88397791152283 197.646484375 299.164794921875 C197.00710937500003 299.680419921875 196.36773437500005 300.196044921875 195.708984375 300.727294921875 C195.06960937500003 301.2635449218751 194.43023437500005 301.799794921875 193.771484375 302.352294921875 C189.37526082118666 305.2831106244173 185.62857936155615 305.97789962091724 180.38451671600342 305.98456382751465 C179.10108888804916 305.99101271986956 177.8176610600949 305.99746161222447 176.4953414797783 306.00410592556 C175.07316243627474 306.0011637159064 173.65098378211042 305.99802828492125 172.2288055419922 305.9947204589844 C170.7163877635221 305.99845692193117 169.2039719158206 306.0030584274559 167.69155913591385 306.0084511041641 C163.533901080678 306.02069704292694 159.37632339497463 306.0204187644247 155.21865141391754 306.01806235313416 C150.7352325000072 306.0176545891636 146.2518394923909 306.0286894694357 141.7684326171875 306.0381774902344 C132.983931874448 306.05479719819687 124.19945797081937 306.0602874750318 115.41494282335043 306.061402246356 C108.27506126985395 306.0623522602416 101.13518857981 306.06646021926144 93.99530982971191 306.07280349731445 C73.75649845393883 306.09041855156556 53.5177082983048 306.0996419541925 33.27888920158148 306.09814254939556 C32.18759062834084 306.09806263700125 31.096292055100207 306.09798272460694 29.971923828125 306.097900390625 C28.879294197931927 306.0978186292946 27.78666456773874 306.09773686796416 26.660924948751926 306.09765262901783 C8.951561574380833 306.09683965246495 -8.757716761726556 306.11597956884793 -26.467055536806583 306.1441771239042 C-44.64689803065255 306.1728956349418 -62.826699037638264 306.18671798752143 -81.00656479597092 306.18498957157135 C-91.21477898233752 306.18432531305075 -101.42290402307839 306.1898333057177 -111.6310977935791 306.2113456726074 C-120.32239944126457 306.2295438716776 -129.01357153397504 306.2339160045492 -137.70488397032022 306.2203268259764 C-142.13930900809783 306.21379029606646 -146.57348539867837 306.21370461657125 -151.00788688659668 306.2310333251953 C-155.0687031307985 306.24673893279123 -159.12907305646752 306.24392633347406 -163.18987824767828 306.22646506130695 C-164.65756191599826 306.2233896054561 -166.12527868585187 306.22704815216025 -167.59292332082987 306.2381852120161 C-176.76981763158645 306.3032014388648 -183.27224099354922 305.9555015140354 -190.498046875 299.867919921875 C-190.76294921875 299.55596679687505 -190.76294921875 299.55596679687505 -192.103515625 297.977294921875 C-192.37486328125 297.67049804687485 -192.37486328125 297.67049804687485 -193.748046875 296.117919921875 C-198.2881909139869 289.08357017033086 -198.7581569072227 282.5151000143435 -198.759765625 274.360107421875 C-198.76737915039064 273.2853414916992 -198.77499267578125 272.21057556152346 -198.7828369140625 271.1032409667969 C-198.79359900612147 268.83911450403093 -198.79650693832582 266.57493855477696 -198.7919921875 264.310791015625 C-198.7910204396927 260.86934615606515 -198.8326784858263 257.4301370165415 -198.876953125 253.989013671875 C-198.88216144748196 251.7793828588999 -198.88484829701503 249.56974437156532 -198.884765625 247.360107421875 C-198.90116088867188 246.343127746582 -198.91755615234376 245.32614807128903 -198.9344482421875 244.27835083007813 C-198.8665008581264 237.16292136131528 -197.35107436291335 231.64193890589172 -193.291015625 225.727294921875 C-186.78756015563573 219.460522782196 -179.91744406954453 216.35942726614667 -170.921875 216.463623046875 C-170.07431640624998 216.488759765625 -169.2267578125 216.51389648437498 -168.353515625 216.539794921875 C-167.47888671875 216.55333007812487 -166.6042578125 216.56686523437497 -165.703125 216.580810546875 C-163.56548476355533 216.61585382943963 -161.42816578793725 216.6696495128847 -159.291015625 216.727294921875 C-159.2976774597168 215.96546905517584 -159.3043392944336 215.2036431884767 -159.3112030029297 214.41873168945313 C-159.37191494878908 207.15458284180318 -159.4172898061227 199.89056111260743 -159.4464521408081 192.62622261047363 C-159.4619499221538 188.89368786617888 -159.48288763651175 185.1613668607108 -159.517333984375 181.428955078125 C-159.69378022975036 161.76467610452005 -159.70424125506258 142.84736812396295 -153.103515625 124.039794921875 C-152.80163330078125 123.16315185546875 -152.4997509765625 122.28650878906251 -152.188720703125 121.38330078125 C-141.30207506855447 90.84432021752127 -118.87094734824524 67.55772847871788 -90.291015625 52.727294921875 C-89.6142578125 52.35733398437503 -88.9375 51.98737304687495 -88.240234375 51.606201171875 C-81.36766852016586 47.94937006485145 -73.85642254288166 45.514171984384234 -66.291015625 43.727294921875 C-65.78505859375002 43.602900390624995 -65.78505859375002 43.602900390624995 -63.224609375 42.973388671875 C-55.7508763087651 41.24482694594133 -48.94634312671883 40.39120308120653 -41.291015625 40.727294921875 C-41.31196289062501 40.13303710937498 -41.33291015625002 39.538779296874964 -41.3544921875 38.926513671875 C-41.43843416583695 36.19361787082994 -41.489918439434916 33.46099434960627 -41.541015625 30.727294921875 C-41.57453125000001 29.792724609375 -41.608046875000014 28.858154296875 -41.642578125 27.895263671875 C-41.76773745621273 18.946371490165347 -39.125279065850805 13.436102950562372 -33.291015625 6.727294921875 C-23.715162591755075 -1.185887286042771 -11.72660146421265 -0.15671255648419447 0 0 Z M-28.42010498046875 17.735107421875 C-31.136879521505477 22.080103184109817 -30.848029345365774 25.856593820911144 -30.80517578125 30.885986328125 C-30.80873832702639 31.396004409790066 -30.80873832702639 31.396004409790066 -30.826766967773438 33.97700500488281 C-30.84604731538053 37.34448616048246 -30.837769388384118 40.7113393982429 -30.830078125 44.078857421875 C-30.839981786985845 46.41865967199715 -30.851921765394422 48.75845411717455 -30.865814208984375 51.098236083984375 C-30.898196492027182 57.25544551300618 -30.908570783796108 63.412476977149254 -30.91265869140625 69.56976318359375 C-30.92141186460674 79.4326795973119 -30.956802912633293 89.29544976301281 -31.004833221435547 99.15824508666992 C-31.017455335765078 102.60779979653478 -31.016657283646225 106.05717117184497 -31.014556884765625 109.50674438476563 C-31.02113491388093 111.61362857287236 -31.028140717012775 113.72051148386902 -31.03564453125 115.827392578125 C-31.031520538330085 116.79057907104493 -31.02739654541017 117.75376556396486 -31.023147583007813 118.74613952636719 C-31.028530426025384 119.62652389526363 -31.033913269042955 120.50690826416019 -31.039459228515625 121.41397094726563 C-31.039626970291124 121.79649426460264 -31.039626970291124 121.79649426460264 -31.040475845336914 123.7322940826416 C-31.291015625 125.727294921875 -31.291015625 125.727294921875 -33.291015625 128.727294921875 C-35.601015625 128.727294921875 -37.911015625000005 128.727294921875 -40.291015625 128.727294921875 C-40.621015624999984 103.31729492187503 -40.95101562499997 77.90729492187506 -41.291015625 51.727294921875 C-55.29437276785711 51.727294921875 -55.29437276785711 51.727294921875 -62.541015625 53.789794921875 C-63.34531005859378 54.01094970703127 -64.1496044921875 54.232104492187545 -64.978271484375 54.4599609375 C-93.3098454778472 62.598910301435126 -118.60528892666775 80.9931457255019 -133.4208984375 106.686767578125 C-152.5841402943451 141.5918532577124 -148.291015625 175.527443132979 -148.291015625 216.727294921875 C-48.30101562499999 216.727294921875 51.68898437500002 216.727294921875 154.708984375 216.727294921875 C154.708984375 118.89596962067014 154.708984375 118.89596962067014 126.708984375 88.727294921875 C125.92910156250002 87.87909179687495 125.14921875000005 87.030888671875 124.345703125 86.156982421875 C107.90081325374763 69.00393939827211 81.32308294161294 52.20368164190529 56.662841796875 51.66015625 C55.59912353515625 51.66813232421873 54.535405273437505 51.676108398437464 53.439453125 51.684326171875 C52.90203491210934 51.68742797851564 52.90203491210934 51.68742797851564 50.182373046875 51.703125 C49.366154785156255 51.71110107421873 48.54993652343751 51.719077148437464 47.708984375 51.727294921875 C47.704940948486296 52.19487716674803 47.704940948486296 52.19487716674803 47.684478759765625 54.561126708984375 C47.60709797897363 63.36088038681635 47.519379451993814 72.1604779072037 47.421457290649414 80.96002769470215 C47.37144522168637 85.48430674674762 47.3251158186568 90.00856188600335 47.287109375 94.532958984375 C47.25031833641867 98.89672469704851 47.20397565848123 103.26029268860725 47.15092086791992 107.6238899230957 C47.13234392462522 109.29127164216357 47.11724824307316 110.95869579535201 47.10564041137695 112.62614059448242 C47.08883404101539 114.95612725314936 47.05981370315237 117.28565780254792 47.02783203125 119.615478515625 C47.02675193786621 119.96253593444828 47.02675193786621 119.96253593444828 47.02128601074219 121.71885681152344 C46.93708869756017 126.49919059931483 46.93708869756017 126.49919059931483 44.708984375 128.727294921875 C42.208984375 129.039794921875 42.208984375 129.039794921875 39.708984375 128.727294921875 C37.631831648617435 125.61156583230115 37.46041432273438 124.95693995569309 37.47088623046875 121.42742919921875 C37.46963996887206 120.9886821746826 37.46963996887206 120.9886821746826 37.46333312988281 118.76835632324219 C37.47059921264645 117.80831192016603 37.4778652954102 116.84826751708988 37.4853515625 115.859130859375 C37.48494369506835 114.84581192016606 37.484535827636705 113.832492980957 37.48411560058594 112.78846740722656 C37.48391786096886 110.58513811334126 37.4879654164028 108.38180534202388 37.49571990966797 106.1784896850586 C37.505923649741646 102.68969352200384 37.500576271239765 99.20125583594017 37.49029541015625 95.71246337890625 C37.46228514590052 85.79205067993564 37.4498228748854 75.8718381314045 37.47900390625 65.951416015625 C37.4957313973124 59.88528651596516 37.48341738990109 53.81979657705176 37.452552795410156 47.75373077392578 C37.44644734625723 45.4429170714227 37.45132132987294 43.132047053248584 37.467430114746094 40.82128143310547 C37.48904661899206 37.584486634049995 37.47372436000933 34.349774669361295 37.4501953125 31.113037109375 C37.457876815795885 30.63706336975099 37.457876815795885 30.63706336975099 37.49674987792969 28.228347778320313 C37.40738517308978 22.461138554274044 36.375036816461716 19.30725561120323 32.386051177978516 15.088733673095703 C29.043244537671058 12.37505137381595 26.30718353698279 11.477071645573687 22.03564453125 11.436767578125 C21.574990997314444 11.430387725830087 21.574990997314444 11.430387725830087 19.243804931640625 11.398101806640625 C18.25520477294924 11.395876159667978 17.2666046142578 11.39365051269533 16.248046875 11.391357421875 C15.224722595214871 11.384700622558626 14.201398315429685 11.378043823242137 13.147064208984375 11.371185302734375 C10.983477741743798 11.361065936428531 8.81986010801586 11.356368061249213 6.65625 11.356689453125 C3.3529899628936164 11.35232006154149 0.05107024245080538 11.316002327451201 -3.251953125 11.278076171875 C-5.35611523224793 11.27220707294191 -7.460283673129879 11.268238303775547 -9.564453125 11.266357421875 C-10.549004821777316 11.251986389160152 -11.53355651855469 11.237615356445303 -12.547943115234375 11.222808837890625 C-19.64399562275412 11.269880113033082 -23.190385896169175 12.80328277958165 -28.42010498046875 17.735107421875 Z M-186.291015625 234.727294921875 C-187.244845853311 237.63144028011357 -187.42580149578492 240.25970399435164 -187.4521484375 243.308837890625 C-187.46175598144532 244.21012420654301 -187.47136352539061 245.11141052246103 -187.48126220703125 246.04000854492188 C-187.48551208496093 247.00673492431633 -187.4897619628906 247.97346130371102 -187.494140625 248.969482421875 C-187.4998406982422 249.97061065673824 -187.50554077148436 250.9717388916015 -187.51141357421875 252.00320434570313 C-187.52085209237836 254.11971991458267 -187.52739299207332 256.23625010335445 -187.53125 258.352783203125 C-187.540958692846 261.5833507476359 -187.57199454291145 264.81328277470607 -187.603515625 268.043701171875 C-187.61004580758322 270.1022911531463 -187.61529621897878 272.16088567291763 -187.619140625 274.219482421875 C-187.63148742675781 275.1821603393555 -187.64383422851563 276.144838256836 -187.65655517578125 277.1366882324219 C-187.6391976204476 282.38595079693005 -187.46643472307719 286.32813433235856 -184.291015625 290.727294921875 C-177.8634135946798 296.945672636735 -171.3830779762967 296.42930984432314 -162.82261657714844 296.3487548828125 C-161.33591551763146 296.35308607354045 -159.84921949731353 296.3596040588461 -158.36253648996353 296.3681149482727 C-154.28515334284094 296.38509448193076 -150.20838500284776 296.37093393790406 -146.13103425502777 296.3516001701355 C-141.73084108040752 296.3361678063875 -137.33072297923854 296.34957638043807 -132.93052673339844 296.3593444824219 C-124.31399685464118 296.3738706244235 -115.69770260566281 296.36163767427 -107.08119504898787 296.3402312397957 C-97.04836471999806 296.3162208804911 -87.01558838023817 296.31793561570976 -76.98273570090532 296.32053714990616 C-59.083086700325566 296.324227348503 -41.183548735386296 296.30340103893013 -23.283935546875 296.269287109375 C-5.9118366897379815 296.23619079738205 11.46014564114148 296.2220296581861 28.832275390625 296.228271484375 C47.74729623243718 296.2350342407826 66.66226825961479 296.23257889233673 85.57728189229965 296.2129120826721 C86.57731629829846 296.2118725970388 87.57735070429749 296.21083311140546 88.60768918320537 296.20976212620735 C90.61624128120184 296.2076712219118 92.62479335840885 296.2055602482694 94.63334541395307 296.20342895388603 C101.62824393849644 296.1965313100591 108.62312742790073 296.1958643793473 115.61802864074707 296.1973114013672 C124.14062573997626 296.19875052662064 132.663127777446 296.1890707291411 141.1856933310628 296.1653650403023 C145.5347715883928 296.15349850757525 149.8837172829626 296.14638426988745 154.2328109741211 296.1522026062012 C158.21321467705047 296.15737040366776 162.19333819987537 296.1487005889346 166.17369394749403 296.12892800569534 C167.61435482195589 296.1241842550535 169.05504294352306 296.1244933264452 170.49569977074862 296.1303383708 C172.45313036454286 296.13751328201715 174.41060385702815 296.124455917849 176.36799716949463 296.1104049682617 C176.91175802975897 296.1096193671226 176.91175802975897 296.1096193671226 179.66351753473282 296.10564374923706 C184.52717998284402 295.5014142237019 187.75397448683543 293.78554912227355 191.021484375 290.164794921875 C193.3144953500323 286.8526679579395 193.83884746326305 285.1644981772438 193.885986328125 281.189208984375 C193.89882156372073 280.2477301025392 193.91165679931646 279.3062512207032 193.9248809814453 278.33624267578125 C193.93226791381835 277.31544616699216 193.9396548461914 276.29464965820307 193.947265625 275.242919921875 C193.9553373718261 274.1945697021483 193.9634091186524 273.1462194824219 193.9717254638672 272.06610107421875 C193.98557371844822 269.843482030984 193.99629254312026 267.62084165358124 194.004150390625 265.398193359375 C194.021344613466 262.0048771558704 194.06522282907804 258.6125397582068 194.109375 255.219482421875 C194.11950342386115 253.0606354241695 194.1280190576822 250.9017801369655 194.134765625 248.742919921875 C194.14351966857907 248.23657012939452 194.14351966857907 248.23657012939452 194.1878204345703 245.67413330078125 C194.1699979780094 239.86186517797773 193.80842128085078 236.19878801015716 189.708984375 231.727294921875 C183.87330769725122 226.2008557023005 176.92106172501713 227.1593962463346 169.29837036132813 227.1991729736328 C167.80570727434804 227.19241403398473 166.3130511966017 227.18392267149352 164.82040679454803 227.17384976148605 C160.72193965071108 227.15132625414503 156.62381046034943 227.15378499067674 152.52530074119568 227.16041910648346 C148.1038991325088 227.1632923863558 143.6825922006259 227.14324434577225 139.26123046875 227.1262664794922 C130.60050648318827 227.09690000762703 121.93989898670543 227.08961719310219 113.27913035452366 227.09084198623896 C106.23985276908684 227.0916741157132 99.2006120477522 227.08581725710133 92.16134262084961 227.07521629333496 C70.03044478293907 227.04253338345757 47.899660406544854 227.03355662649324 25.768741950392723 227.04230602830648 C8.308323043943005 227.04828840193204 -9.151815113619023 227.01788971310134 -26.61216400563717 226.9706833139062 C-44.53893240627741 226.92259377080086 -62.4655655849395 226.90050666820093 -80.39239990711212 226.90599411725998 C-90.45758914456167 226.9085715931426 -100.5225094469356 226.90056523977614 -110.58764266967773 226.86492347717285 C-119.15640694597857 226.83481967259536 -127.7247623093333 226.82902446957178 -136.29354821145535 226.854732491076 C-140.6653836465535 226.86716415869773 -145.0364502506505 226.8683283139751 -149.40822219848633 226.8390235900879 C-153.41196354533344 226.8124765096527 -157.41431118732123 226.8183487322292 -161.41800452768803 226.84985353797674 C-162.86479829066695 226.85558145358232 -164.31169767033214 226.84953279704746 -165.75837622582912 226.8303975239396 C-174.42384342254212 226.72353950295792 -180.99314007748725 227.20532042373907 -186.291015625 234.727294921875 Z " fill="#EAECEC" transform="translate(432.291015625,836.272705078125)"/>
<path d="M0 0 C4.2165296777889125 3.797798093158576 6.762258777794159 7.320316795424219 7.2734375 13.08203125 C7.306953125000064 14.313085937499977 7.340468750000127 15.544140624999955 7.375 16.8125 C7.423984374999918 18.015195312500055 7.472968750000064 19.217890624999995 7.5234375 20.45703125 C6.874792256610135 31.705489007322626 0.41831449145820443 42.73326385191331 -4.5 52.625 C-5.748791295211049 55.16731939928695 -6.9916774156556585 57.71250998171513 -8.234375 60.2578125 C-8.548442993164144 60.89958435058588 -8.862510986328061 61.54135620117188 -9.18609619140625 62.20257568359375 C-12.468496166101659 68.92512849801051 -15.61612705725588 75.70705020969763 -18.75 82.5 C-24.080247249505874 94.0419824162426 -29.500834378485024 105.53758822767588 -35 117 C-34.05382812500011 117.02578124999991 -33.10765624999999 117.05156250000005 -32.1328125 117.078125 C-24.402074845364723 117.37576532157141 -16.94496832278901 118.18330092907831 -9.375 119.8125 C-8.630083007812573 119.965576171875 -7.885166015624918 120.11865234375 -7.11767578125 120.2763671875 C-0.6912659993399757 121.74584282248497 4.330005227249558 124.29111924238828 8 130 C8.531093750000082 129.0009765625 9.062187499999936 128.001953125 9.609375 126.97265625 C10.322224453346507 125.66889211822149 11.035804346385248 124.36552717654195 11.75 123.0625 C12.098046874999909 122.40314453125006 12.446093750000045 121.7437890624999 12.8046875 121.064453125 C15.46549334811516 116.26022034368066 15.46549334811516 116.26022034368066 18.078125 114.98828125 C22.400372266675276 115.01463641626015 25.395059210831278 117.41097870528324 28.375 120.3125 C30.410291413830464 123.67855887671953 30.432136920190715 125.09257247953815 30 129 C28.796327263102967 131.92671339955018 27.261004742592377 134.63295452608736 25.6875 137.375 C22.619303202177434 142.8165228695034 20.060174065671163 148.09283423241186 18 154 C34.01137948685982 148.00424938364404 49.30768301940816 140.59699261551918 62.7109375 129.8203125 C64.98935246423412 128.00846715301532 66.1207569190583 127.1799526925588 69 127 C72.78103029977456 128.0802943713643 73.76204175436396 128.64306263154594 76 132 C75.95251284094502 135.60308819330066 75.15230165068033 136.83932175853215 72.65625 139.47265625 C71.61645596305311 140.3507007919277 70.56330557012848 141.21307953791234 69.5 142.0625 C68.92830078125007 142.53147705078118 68.35660156249992 143.00045410156258 67.767578125 143.483642578125 C32.51751121696043 171.93857252216822 32.51751121696043 171.93857252216822 17.09765625 171.27734375 C11.18733773218537 170.4959049887991 7.817454908944001 167.21743691461847 4.2578125 162.75390625 C0.9292069228697528 158.1124655539395 0.33301821203326654 153.6161799827346 1 148 C1.8373545583206123 144.60701996888588 2.862695408189893 141.30359905240107 4 138 C-10.969362939189296 133.28919409102195 -26.449682675390477 132.31813236696894 -42 131 C-42.16653076171883 131.59063232421886 -42.333061523437436 132.1812646484375 -42.504638671875 132.789794921875 C-44.43470327973182 139.44601840803602 -46.80355690475585 145.85622397567022 -49.3125 152.3125 C-52.33839922876268 160.25424940555558 -55.13962466072303 168.20903627515145 -57.5 176.375 C-57.74274658203126 177.19911376953132 -57.98549316406252 178.02322753906242 -58.235595703125 178.872314453125 C-59.78625279909875 184.4240845801371 -61.14637831129721 190.2036924769477 -61 196 C-59.125 198.25 -59.125 198.25 -57 200 C-56.125 203.0625 -56.125 203.0625 -56 206 C-56.66000000000008 206.99 -57.319999999999936 207.98000000000002 -58 209 C-64.19941561980704 208.40957946478034 -68.04504314346832 206.11786992790917 -72.25 201.5625 C-77.30986857808307 194.15340672494972 -77.07164252244343 185.4519965090917 -75.6455078125 176.86572265625 C-72.54571472919474 162.0021812014861 -67.78045032233149 145.56090064466298 -61 132 C-79.98495473332059 133.25544911890438 -98.87741010056493 134.69365753725924 -117.6875 137.625 C-118.0420677185059 137.68000167846685 -118.0420677185059 137.68000167846685 -119.83639526367188 137.95834350585938 C-134.32896051264038 140.22843154919178 -134.32896051264038 140.22843154919178 -136.41943359375 142.632080078125 C-136.90750488281242 143.33743896484384 -137.39557617187506 144.04279785156245 -137.8984375 144.76953125 C-138.4536206054688 145.56560791015636 -139.0088037109374 146.3616845703125 -139.580810546875 147.181884765625 C-140.17289306640623 148.04998779296875 -140.76497558593746 148.9180908203125 -141.375 149.8125 C-141.9935083007813 150.7096069335937 -142.61201660156257 151.6067138671874 -143.249267578125 152.531005859375 C-159.89444864127586 176.7966680861873 -175.51800157440175 202.02346532965362 -188.23828125 228.6015625 C-188.39667480468756 228.9320056152344 -188.39667480468756 228.9320056152344 -189.1982421875 230.604248046875 C-189.99297420278845 232.29002282167744 -190.76517650790197 233.9863704988502 -191.53515625 235.68359375 C-193 238 -193 238 -194.99609375 238.91796875 C-198.28214098339254 239.05248530341373 -200.2543404494445 237.7160372190972 -203 236 C-205.69603450247928 233.37491377390188 -206.90893208249508 231.97291739799812 -207.26220703125 228.19873046875 C-206.966954941965 224.59687490654073 -206.04989032122126 222.35379880185747 -204.4296875 219.1328125 C-203.8702343750001 218.01213378906255 -203.31078125 216.8914550781251 -202.734375 215.73681640625 C-202.1155587284095 214.53237596718873 -201.4957413448767 213.32844943059195 -200.875 212.125 C-200.23693374707545 210.87030304465725 -199.5989135635025 209.6155826601332 -198.9609375 208.36083984375 C-188.19512031844397 187.33413661787426 -176.3720055905692 165.79436547012892 -162 147 C-184.33012246593785 151.62113967095388 -205.97089824352497 158.77164341418143 -226.989501953125 167.545166015625 C-227.53715209960933 167.7703894042968 -227.53715209960933 167.7703894042968 -230.30859375 168.91015625 C-231.26564208984382 169.3137133789062 -232.22269042968742 169.71727050781237 -233.208740234375 170.133056640625 C-236.34250435743706 171.10637916323435 -238.7366279915152 171.31086395450802 -242 171 C-245.52395603332525 168.56033813077488 -248.80305956337338 166.255788219117 -250 162 C-250.125 159.5 -250.125 159.5 -249 157 C-241.41305834324658 152.59530497165474 -232.97582092273888 149.84916063204628 -224.75 146.875 C-223.96965393066398 146.59198028564447 -223.1893078613282 146.30896057128894 -222.38531494140625 146.01736450195313 C-210.34460880806614 141.6741719114682 -198.21470843841962 137.83655461698936 -185.875 134.4375 C-185.15389038085937 134.2380780029298 -184.43278076171873 134.03865600585937 -183.6898193359375 133.83319091796875 C-175.58977145684912 131.60842537723897 -167.4485191279216 129.58609945894864 -159.2578125 127.72265625 C-158.5063595581055 127.5489097595214 -157.75490661621097 127.37516326904301 -156.98068237304688 127.19615173339844 C-153.26134022845622 126.3699981895968 -149.81391605251224 125.79301784652262 -146 126 C-145.77054687500004 125.47148437500005 -145.54109375000007 124.94296875000009 -145.3046875 124.3984375 C-143.57142066518782 121.21213260007607 -141.37605021226773 118.45374640850264 -139.125 115.625 C-138.64031249999994 115.01285644531254 -138.1556250000001 114.40071289062507 -137.65625 113.77001953125 C-128.89039501720208 102.77617640699088 -119.57641199237628 92.29079385161458 -110 82 C-108.81506311233784 80.72139221212728 -107.6301694331637 79.44274438025218 -106.4453125 78.1640625 C-105.2138486087481 76.838256499865 -103.98208128969804 75.51273226682247 -102.75 74.1875 C-102.4668090820312 73.88235473632813 -102.4668090820312 73.88235473632813 -101.03369140625 72.338134765625 C-95.38931342854994 66.28635417798591 -89.6290975230329 60.47415067262989 -83.35546875 55.07421875 C-80.98365613211763 52.98560763873047 -78.67098958260976 50.844656036707306 -76.361572265625 48.687744140625 C-70.96277631984913 43.64797560498096 -65.4786299985144 38.80703386147297 -59.70703125 34.19140625 C-57.90561570736554 32.73311747739103 -56.131445594079196 31.240501752670184 -54.38671875 29.71484375 C-40.43365531414952 17.577454764076265 -24.79147226588907 7.6970156885911365 -8 0 C-4.910626400596811 -1.5446867997014806 -3.2816737724697305 -1.0097457761445412 0 0 Z M-44 45 C-45.2316662175449 46.036582650416904 -46.463434697076536 47.07304380716107 -47.6953125 48.109375 C-54.29134122592586 53.68779744236463 -60.73523294867073 59.41657441956784 -67.0703125 65.2890625 C-69.0355502969744 67.10756254146702 -71.00590589274702 68.91591788225469 -72.9921875 70.7109375 C-82.14220846694911 78.99242654001978 -91.15642364906944 87.46620360685199 -99.16015625 96.87890625 C-101.07646970609494 99.08815934269546 -103.05605944183571 101.23215621864165 -105.04736328125 103.373779296875 C-119 118.39338235294122 -119 118.39338235294122 -119 121 C-112.63692648060533 120.58094143199833 -106.28140042745576 120.13208224628738 -99.93359375 119.5234375 C-84.63437034119329 118.07210612239714 -69.36035192176178 117.4183157946145 -54 117 C-53.75056640625007 116.45102050781247 -53.50113281249992 115.90204101562495 -53.244140625 115.33642578125 C-47.29630949664056 102.26347738108109 -41.25042330965857 89.24045334998902 -35.125 76.25 C-34.44173520166419 74.79976002973376 -33.75854848446011 73.34948326984886 -33.075439453125 71.899169921875 C-32.737136077880905 71.18092544555668 -32.39883270263681 70.46268096923825 -32.05027770996094 69.72267150878906 C-31.369570282089626 68.27739557745213 -30.688875654740514 66.83211361715382 -30.008193969726563 65.38682556152344 C-29.67403976440437 64.67732254028317 -29.33988555908195 63.967819519042905 -28.99560546875 63.23681640625 C-28.664376831054597 62.53349182128909 -28.33314819335942 61.83016723632818 -27.99188232421875 61.10552978515625 C-27.336091252869437 59.71344163129868 -26.68004897359083 58.321471787006885 -26.02374267578125 56.92962646484375 C-24.187079974344442 53.034492041232625 -22.3550303133361 49.13726308368416 -20.53045654296875 45.2364501953125 C-19.714688663145125 43.49552321754663 -18.893808094290762 41.75699479172158 -18.07275390625 40.0185546875 C-15.306591265234374 34.09325224304382 -12.922214198992151 28.252116490237086 -11 22 C-21.06880036454868 22 -36.69062957002507 38.785735855876965 -44 45 Z " fill="#1D4079" transform="translate(1733,913)"/>
<path d="M0 0 C0.6600000000000819 0.6600000000000819 1.3199999999999363 1.3199999999999363 2 2 C2.618750000000091 1.9793749999998909 2.618750000000091 1.9793749999998909 5.75 1.875 C11.118420327240983 1.7385973056600506 14.041400750272715 4.171974033587958 17.875 7.75 C21.168878791054794 14.337757582109816 18.105376553496853 21.975229419793322 16 28.5 C15.713828124999964 29.417812500000082 15.427656249999927 30.335624999999936 15.1328125 31.28125 C14.431888878693599 33.52420558818039 13.720830918639422 35.7633792418103 13 38 C32.77038043491325 32.40391466274332 49.550408850515396 20.524655967249373 65.1171875 7.42578125 C67 6 67 6 70 5 C72.94265661246664 5.809230568428347 74.67575379672462 6.686562003500512 76.875 8.8125 C78 11 78 11 77.9140625 13.29296875 C76.66964410111177 16.978361700553705 74.34524734357205 18.999071254675982 71.5 21.5 C71.21415039062504 21.756684570312473 71.21415039062504 21.756684570312473 69.767578125 23.0556640625 C33.930722401988305 54.70454144861765 33.930722401988305 54.70454144861765 15 54 C8.527958383166379 52.89017336895449 3.8306307217753783 49.239248897243215 0 44 C-2.8851526563760217 38.30131195176796 -3.1122709106980437 33.2805668278761 -3 27 C-3.992578124999909 27.822421874999918 -4.9851562500000455 28.644843750000064 -6.0078125 29.4921875 C-34.826840239785724 53.23075482431045 -34.826840239785724 53.23075482431045 -45 55 C-48.70369317157474 53.688275335067374 -50.76009091864694 52.25836362607242 -53.4375 49.375 C-56.47196667506364 42.82055198186231 -54.23167718628952 37.232955573880645 -51.875 30.6875 C-46.35054079626798 17.16752719086685 -37.935391113651576 2.2678833393281366 -24 -4 C-15.077215646300374 -6.7344016567788 -7.747267429359908 -4.916535099401472 0 0 Z M-15 11 C-15.329999999999927 11.49499999999989 -15.329999999999927 11.49499999999989 -17 14 C-15.680000000000064 13.339999999999918 -14.3599999999999 12.680000000000064 -13 12 C-13.660000000000082 11.670000000000073 -14.319999999999936 11.339999999999918 -15 11 Z M-19 14 C-19.329999999999927 14.49499999999989 -19.329999999999927 14.49499999999989 -21 17 C-19.680000000000064 16.339999999999918 -18.3599999999999 15.680000000000064 -17 15 C-17.660000000000082 14.670000000000073 -18.319999999999936 14.339999999999918 -19 14 Z " fill="#1D3F79" transform="translate(1308,1034)"/>
<path d="M0 0 C5.268842703675773 0.41324256499422063 8.22944438481386 1.2294443848138599 12 5 C13.706128877689707 7.404090691290094 14.082408986719201 8.40002237717897 13.6796875 11.33203125 C12.984717881132156 14.059986707969529 12.067022029769987 16.265996424864056 10.75 18.75 C10.352968749999945 19.528593750000027 9.95593749999989 20.307187500000055 9.546875 21.109375 C8 23 8 23 5.48828125 23.8359375 C2.0578776364918667 24.06211795803347 0.7023820810040888 23.078755446926152 -2 21 C-4.375 18.75 -4.375 18.75 -6 16 C-6.119783671296545 9.771249092581684 -3.163906435867375 5.148644790470371 0 0 Z " fill="#26477E" transform="translate(1766,993)"/>
<path d="M0 0 C0.9279135131835687 -0.009607543945321595 1.8558270263671943 -0.01921508789064319 2.811859130859375 -0.02911376953125 C3.3144575500488145 -0.031238708496061918 3.3144575500488145 -0.031238708496061918 5.85791015625 -0.0419921875 C6.8888076782226335 -0.04769226074222388 7.919705200195324 -0.05339233398433407 8.981842041015625 -0.05926513671875 C11.165781361622237 -0.0687225481843825 13.349735001011652 -0.07525205062233908 15.53369140625 -0.0791015625 C18.87639233671507 -0.08880743047461692 22.2184786227495 -0.11982433610751286 25.56103515625 -0.1513671875 C27.680823163916216 -0.15789706957866656 29.800615577536405 -0.16314759882425278 31.92041015625 -0.1669921875 C32.92155853271481 -0.17933898925775793 33.92270690917968 -0.19168579101562955 34.954193115234375 -0.20440673828125 C35.88841094970701 -0.20140563964844205 36.8226287841797 -0.1984045410156341 37.78515625 -0.1953125 C38.195173797607424 -0.1971353149414199 38.195173797607424 -0.1971353149414199 40.270111083984375 -0.20635986328125 C43.03132572923954 0.24425671585879627 44.432392023980356 1.3489778312917906 46.52197265625 3.1611328125 C44.00195489336028 3.1611328125 41.48215171732113 3.1546451852157134 38.962158203125 3.145263671875 C33.823004076601876 3.1272607218686517 28.683854096023765 3.1157076024367143 23.544677734375 3.106201171875 C21.326573953230024 3.1011677762805903 19.10847349599908 3.094340575979686 16.890380859375 3.085693359375 C13.68814278853364 3.0735392965921164 10.4859483621251 3.06788585019342 7.28369140625 3.0634765625 C6.29600265502927 3.0583152770996094 5.308313903808596 3.0531539916992188 4.2906951904296875 3.0478363037109375 C-0.4161904491845121 3.0474543732417487 -4.849087897505228 3.1788245674823656 -9.47802734375 4.1611328125 C-6.326667265807771 0.8665290946512414 -4.554850880603169 0.03799959267428221 0 0 Z " fill="#324672" transform="translate(416.47802734375,847.8388671875)"/>
<path d="M0 0 C0.6600000000000819 0.3300000000000409 1.3199999999999363 0.6599999999999682 2 1 C-10.210000000000036 13.210000000000036 -22.420000000000073 25.41999999999996 -35 38 C-35.66000000000008 37.66999999999996 -36.319999999999936 37.34000000000003 -37 37 C-36.57589843749997 36.58749999999998 -36.151796874999945 36.174999999999955 -35.71484375 35.75 C-32.57684992857321 32.66028300659514 -29.550701830495882 29.534719282793958 -26.6875 26.1875 C-20.56732324015161 19.106757380982685 -13.867625438864707 12.621603316837536 -6.76171875 6.5390625 C-4.388470835114504 4.46575944353674 -2.1931273808204423 2.2616626114710243 0 0 Z " fill="#5F77A0" transform="translate(1657,961)"/>
<path d="M0 0 C7.189910811580717 -0.05068173440599821 14.379775601677693 -0.08572588156869188 21.56982421875 -0.10986328125 C24.016130793652053 -0.11992504373131396 26.462425333165243 -0.13357580977685757 28.90869140625 -0.15087890625 C32.4235328153722 -0.1751191918301629 35.938215298326156 -0.18648138444257256 39.453125 -0.1953125 C40.548042602539056 -0.20563507080078125 41.64296020507811 -0.2159576416015625 42.77105712890625 -0.226593017578125 C43.791813354492206 -0.226744079589821 44.812569580078105 -0.22689514160151703 45.8642578125 -0.22705078125 C46.76138488769533 -0.23149200439456763 47.65851196289066 -0.23593322753902157 48.58282470703125 -0.240509033203125 C51.155828939184175 0.015504985350958123 52.7854957123817 0.6997867606431782 55 2 C54.00999999999999 2.330000000000041 53.01999999999998 2.659999999999968 52 3 C51.34000000000003 2.669999999999959 50.68000000000001 2.340000000000032 50 2 C48.509708338610835 1.9052789404885289 47.01527075373815 1.8720570745247187 45.52197265625 1.87060546875 C44.594059143066374 1.867453308105496 43.666145629882806 1.864301147460992 42.710113525390625 1.861053466796875 C41.704916687011746 1.8630776977538517 40.69971984863281 1.865101928710942 39.6640625 1.8671875 C38.63316497802737 1.8662307739257358 37.602267456054676 1.8652740478515852 36.540130615234375 1.864288330078125 C34.3561802075933 1.8636068974083173 32.17222778233628 1.8654586205683472 29.98828125 1.86962890625 C26.645786897865207 1.8749668037345373 23.30342759094077 1.8696882643293975 19.9609375 1.86328125 C17.841145536488625 1.863942251566641 15.721353657082318 1.865223869168517 13.6015625 1.8671875 C12.600414123535131 1.8651632690430233 11.59926574707032 1.863139038085933 10.567779541015625 1.861053466796875 C10.100670623779308 1.862629547119127 10.100670623779308 1.862629547119127 7.73681640625 1.87060546875 C7.326798858642576 1.871003265380864 7.326798858642576 1.871003265380864 5.251861572265625 1.873016357421875 C3.0438343965536774 1.9975281556321534 1.1200403546814073 2.38796578352094 -1 3 C-0.6700000000000159 2.009999999999991 -0.339999999999975 1.0199999999999818 0 0 Z " fill="#E0E8ED" transform="translate(409,847)"/>
<path d="M0 0 C0.6599999999999682 0.3300000000000409 1.32000000000005 0.6599999999999682 2 1 C-3.9400000000000546 6.940000000000055 -9.879999999999995 12.879999999999995 -16 19 C-16.659999999999968 18.66999999999996 -17.32000000000005 18.340000000000032 -18 18 C-13.516099237374192 12.740956818303289 -8.953298500436631 7.867022441603012 -3.6640625 3.41015625 C-2 2 -2 2 0 0 Z " fill="#5D769F" transform="translate(844,963)"/>
<path d="M0 0 C0.6599999999999682 0.32999999999992724 1.32000000000005 0.6600000000000819 2 1 C-3.6100000000000136 6.6099999999999 -9.220000000000027 12.220000000000027 -15 18 C-15 12.783910192858684 -10.504271665883266 9.58349867745983 -7 6 C-4.723956687741406 3.9068910100349967 -2.4016043352248744 1.9513035223701536 0 0 Z " fill="#6279A2" transform="translate(908,1086)"/>
<path d="M0 0 C8.020714727838936 1.9420234478822067 15.454507130355864 4.668394945863952 23 8 C18.8159535635142 9.394682145495267 16.083023018421386 7.714288629455723 12.1875 6.125 C7.452273669666056 4.213452412270726 3.1145811395520013 2.626275241577787 -2 2 C-1.339999999999975 1.3400000000000318 -0.6800000000000068 0.67999999999995 0 0 Z " fill="#25406C" transform="translate(502,891)"/>
<path d="M0 0 C0.6600000000000819 0.32999999999992724 1.3199999999999363 0.6600000000000819 2 1 C-2.2899999999999636 5.289999999999964 -6.579999999999927 9.579999999999927 -11 14 C-11.660000000000082 13.670000000000073 -12.319999999999936 13.339999999999918 -13 13 C-11.58791833136388 11.391795877386585 -10.170139642147433 9.788592919130679 -8.75 8.1875 C-7.961093749999918 7.294179687499991 -7.172187500000064 6.400859374999982 -6.359375 5.48046875 C-4.341205549018923 3.3587177543495272 -2.4008329460389177 1.6574557723802172 0 0 Z " fill="#5B749E" transform="translate(1280,1032)"/>
<path d="M0 0 C0.6599999999999682 0 1.32000000000005 0 2 0 C2.330000000000041 0.9900000000000091 2.659999999999968 1.9800000000000182 3 3 C0.1477079957406886 7.516129006743768 -3.6459702021181783 10.06940302065641 -8 13 C-8.330000000000041 12.009999999999991 -8.659999999999968 11.019999999999982 -9 10 C-8.51789062499995 9.697070312500045 -8.035781250000014 9.394140625000091 -7.5390625 9.08203125 C-3.6305636264680743 6.489659548167538 -1.2224862908137766 4.754113353164939 0 0 Z " fill="#889CBA" transform="translate(644,1199)"/>
<path d="M0 0 C-2.250937264757283 5.252186951100271 -5.9248426312078095 8.462421315603933 -11 11 C-11.660000000000025 10.669999999999959 -12.319999999999993 10.340000000000032 -13 10 C-11.213711691901153 8.327221651278705 -9.421492504749722 6.661755566893476 -7.625 5 C-7.3710546875000205 4.7615234375000455 -7.3710546875000205 4.7615234375000455 -6.0859375 3.5546875 C-2.2265625 0 -2.2265625 0 0 0 Z " fill="#CFD6E0" transform="translate(320,904)"/>
<path d="M0 0 C0 3.605738960166036 -0.8170746198836127 4.413365662768797 -3 7.1875 C-3.556874999999991 7.902929687499977 -4.113749999999982 8.618359374999955 -4.6875 9.35546875 C-5.120625000000018 9.898164062499973 -5.5537499999999795 10.440859374999945 -6 11 C-6.990000000000009 10.669999999999959 -7.980000000000018 10.340000000000032 -9 10 C-6.029999999999973 6.7000000000000455 -3.0600000000000023 3.3999999999999773 0 0 Z " fill="#D8DFE6" transform="translate(306,916)"/>
<path d="M0 0 C0.660000000000025 0.3300000000000409 1.3199999999999932 0.6599999999999682 2 1 C0.8789546713704794 2.315879409808417 -0.24696964556289913 3.627603527194424 -1.375 4.9375 C-2.001484375000018 5.668398437499945 -2.6279687499999795 6.3992968750000045 -3.2734375 7.15234375 C-5 9 -5 9 -7 10 C-6.339999999999975 8.019999999999982 -5.680000000000007 6.039999999999964 -5 4 C-4.009999999999991 4 -3.019999999999982 4 -2 4 C-2 3.009999999999991 -2 2.019999999999982 -2 1 C-1.339999999999975 0.6699999999999591 -0.6800000000000068 0.34000000000003183 0 0 Z " fill="#2A406D" transform="translate(306,913)"/>
<path d="M0 0 C7.428571428571445 1 7.428571428571445 1 11 2 C11 2.659999999999968 11 3.32000000000005 11 4 C7.3700000000000045 3.340000000000032 3.740000000000009 2.67999999999995 0 2 C0 1.3400000000000318 0 0.67999999999995 0 0 Z " fill="#394D77" transform="translate(500,878)"/>
<path d="M0 0 C0.660000000000025 0.6599999999999682 1.3199999999999932 1.32000000000005 2 2 C-0.625 8.75 -0.625 8.75 -4 11 C-3.5226916180699845 9.54105739862905 -3.0430895780904166 8.082865035929785 -2.5625 6.625 C-2.295664062500009 5.812890625000023 -2.028828125000018 5.0007812500000455 -1.75390625 4.1640625 C-1 2 -1 2 0 0 Z " fill="#C3CCD8" transform="translate(285,946)"/>
<path d="M0 0 C0.660000000000025 0.6599999999999682 1.3199999999999932 1.32000000000005 2 2 C1.6967023103207453 5.841770735937075 0.47524575769489275 8.094276719227764 -2 11 C-1 3.571428571428555 -1 3.571428571428555 0 0 Z " fill="#CDD4E0" transform="translate(278,964)"/>
<path d="M0 0 C0 0.6599999999999682 0 1.32000000000005 0 2 C-0.660000000000025 2 -1.3199999999999932 2 -2 2 C-2 2.659999999999968 -2 3.32000000000005 -2 4 C-4.310000000000002 4.330000000000041 -6.6200000000000045 4.659999999999968 -9 5 C-2.8709677419354875 0 -2.8709677419354875 0 0 0 Z " fill="#324A72" transform="translate(346,900)"/>
<path d="M0 0 C0.660000000000025 0.3300000000000409 1.3199999999999932 0.6599999999999682 2 1 C-2.625 4 -2.625 4 -6 4 C-6.329999999999984 4.990000000000009 -6.660000000000025 5.980000000000018 -7 7 C-7.990000000000009 6.340000000000032 -8.980000000000018 5.67999999999995 -10 5 C-8.380078350087445 4.13624103906875 -6.753881393186077 3.2842414607638375 -5.125 2.4375 C-4.220078124999986 1.961835937500041 -3.3151562499999727 1.4861718749999682 -2.3828125 0.99609375 C-1.9896484375000227 0.8317382812499545 -1.9896484375000227 0.8317382812499545 0 0 Z " fill="#D1D7E2" transform="translate(346,887)"/>
<path d="M0 0 C1.6499999999999773 0.6599999999999682 1.6499999999999773 0.6599999999999682 10 4 C5.824122546920762 5.391959151026413 3.8652522406681555 3.8232321889944387 0 2 C0 1.3400000000000318 0 0.67999999999995 0 0 Z " fill="#30476F" transform="translate(515,895)"/>
</svg>
