<svg xmlns="http://www.w3.org/2000/svg" width="20" height="20"  viewBox="0 0 20 20"><g transform="matrix(1 0 0 1 0 0)"  ><g style=""   ><g transform="matrix(0.83 0 0 0.83 10 15)"  ><path style="stroke: none; stroke-width: 1; stroke-dasharray: none; stroke-linecap: butt; stroke-dashoffset: 0; stroke-linejoin: miter; stroke-miterlimit: 4; fill: rgb(0,240,255); fill-rule: nonzero; opacity: 1;"  transform=" translate(-12, -18)" d="M 2 19 L 2 15 C 2 14.4477 2.44772 14 3 14 C 3.55228 14 4 14.4477 4 15 L 4 19 L 4.00488 19.0986 C 4.02757 19.3276 4.12883 19.5429 4.29297 19.707 C 4.48051 19.8946 4.73478 20 5 20 L 19 20 C 19.2652 20 19.5195 19.8946 19.707 19.707 C 19.8946 19.5195 20 19.2652 20 19 L 20 15 C 20 14.4477 20.4477 14 21 14 C 21.5523 14 22 14.4477 22 15 L 22 19 C 22 19.7957 21.6837 20.5585 21.1211 21.1211 C 20.5585 21.6837 19.7957 22 19 22 L 5 22 C 4.20435 22 3.44152 21.6837 2.87891 21.1211 C 2.38671 20.6289 2.08291 19.9835 2.01465 19.2969 L 2 19 Z" stroke-linecap="round" /></g><g transform="matrix(0.83 0 0 0.83 10 4.58)"  ><path style="stroke: none; stroke-width: 1; stroke-dasharray: none; stroke-linecap: butt; stroke-dashoffset: 0; stroke-linejoin: miter; stroke-miterlimit: 4; fill: rgb(0,240,255); fill-rule: nonzero; opacity: 1;"  transform=" translate(-12, -5.5)" d="M 11.3691 2.22461 C 11.7619 1.90426 12.3409 1.92685 12.707 2.29297 L 17.707 7.29297 L 17.7754 7.36914 C 18.0957 7.76191 18.0731 8.34092 17.707 8.70703 C 17.3409 9.07315 16.7619 9.09574 16.3691 8.77539 L 16.293 8.70703 L 12 4.41406 L 7.70702 8.70703 C 7.31649 9.09756 6.68348 9.09756 6.29295 8.70703 C 5.90243 8.31651 5.90243 7.68349 6.29295 7.29297 L 11.293 2.29297 L 11.3691 2.22461 Z" stroke-linecap="round" /></g><g transform="matrix(0.83 0 0 0.83 10 7.5)"  ><path style="stroke: none; stroke-width: 1; stroke-dasharray: none; stroke-linecap: butt; stroke-dashoffset: 0; stroke-linejoin: miter; stroke-miterlimit: 4; fill: rgb(0,240,255); fill-rule: nonzero; opacity: 1;"  transform=" translate(-12, -9)" d="M 11 15 L 11 3 C 11 2.44772 11.4477 2 12 2 C 12.5523 2 13 2.44772 13 3 L 13 15 C 13 15.5523 12.5523 16 12 16 C 11.4477 16 11 15.5523 11 15 Z" stroke-linecap="round" /></g></g></g></svg>