<svg xmlns="http://www.w3.org/2000/svg" width="20" height="20"  viewBox="0 0 20 20"><g transform="matrix(1 0 0 1 0 0)"  ><g style=""   ><g transform="matrix(0.83 0 0 0.83 14.17 15)"  ><path style="stroke: none; stroke-width: 1; stroke-dasharray: none; stroke-linecap: butt; stroke-dashoffset: 0; stroke-linejoin: miter; stroke-miterlimit: 4; fill: rgb(34,211,238); fill-rule: nonzero; opacity: 1;"  transform=" translate(-17, -18)" d="M 20.3692 15.2246 C 20.7619 14.9043 21.3409 14.9269 21.707 15.293 C 22.0732 15.6591 22.0958 16.2381 21.7754 16.6309 L 21.707 16.707 L 17.707 20.707 C 17.3409 21.0732 16.7619 21.0958 16.3692 20.7754 L 16.293 20.707 L 12.293 16.707 L 12.2246 16.6309 C 11.9043 16.2381 11.9269 15.6591 12.293 15.293 C 12.6591 14.9269 13.2381 14.9043 13.6309 15.2246 L 13.707 15.293 L 17 18.5859 L 20.293 15.293 L 20.3692 15.2246 Z" stroke-linecap="round" /></g><g transform="matrix(0.83 0 0 0.83 14.17 10)"  ><path style="stroke: none; stroke-width: 1; stroke-dasharray: none; stroke-linecap: butt; stroke-dashoffset: 0; stroke-linejoin: miter; stroke-miterlimit: 4; fill: rgb(34,211,238); fill-rule: nonzero; opacity: 1;"  transform=" translate(-17, -12)" d="M 16 20 L 16 4 C 16 3.44772 16.4477 3 17 3 C 17.5523 3 18 3.44772 18 4 L 18 20 C 18 20.5523 17.5523 21 17 21 C 16.4477 21 16 20.5523 16 20 Z" stroke-linecap="round" /></g><g transform="matrix(0.83 0 0 0.83 5.83 5)"  ><path style="stroke: none; stroke-width: 1; stroke-dasharray: none; stroke-linecap: butt; stroke-dashoffset: 0; stroke-linejoin: miter; stroke-miterlimit: 4; fill: rgb(34,211,238); fill-rule: nonzero; opacity: 1;"  transform=" translate(-7, -6)" d="M 6.36919 3.22462 C 6.76196 2.90427 7.34096 2.92686 7.70708 3.29298 L 11.7071 7.29298 L 11.7754 7.36915 C 12.0958 7.76192 12.0732 8.34092 11.7071 8.70704 C 11.341 9.07316 10.762 9.09575 10.3692 8.7754 L 10.293 8.70704 L 7.00005 5.41407 L 3.70708 8.70704 C 3.31655 9.09757 2.68354 9.09757 2.29302 8.70704 C 1.90249 8.31652 1.90249 7.6835 2.29302 7.29298 L 6.29302 3.29298 L 6.36919 3.22462 Z" stroke-linecap="round" /></g><g transform="matrix(0.83 0 0 0.83 5.83 10)"  ><path style="stroke: none; stroke-width: 1; stroke-dasharray: none; stroke-linecap: butt; stroke-dashoffset: 0; stroke-linejoin: miter; stroke-miterlimit: 4; fill: rgb(34,211,238); fill-rule: nonzero; opacity: 1;"  transform=" translate(-7, -12)" d="M 6 20 L 6 4 C 6 3.44772 6.44772 3 7 3 C 7.55228 3 8 3.44772 8 4 L 8 20 C 8 20.5523 7.55228 21 7 21 C 6.44772 21 6 20.5523 6 20 Z" stroke-linecap="round" /></g></g></g></svg>