<svg xmlns="http://www.w3.org/2000/svg" width="20" height="20"  viewBox="0 0 20 20"><g transform="matrix(1 0 0 1 0 0)"  ><g style=""   ><g transform="matrix(0.83 0 0 0.83 10 10)"  ><path style="stroke: none; stroke-width: 1; stroke-dasharray: none; stroke-linecap: butt; stroke-dashoffset: 0; stroke-linejoin: miter; stroke-miterlimit: 4; fill: rgb(255,107,26); fill-rule: nonzero; opacity: 1;"  transform=" translate(-12, -12)" d="M 12 1.00208 C 12.5249 1.00208 13.0401 1.14078 13.4951 1.40247 L 13.4961 1.40149 L 20.4961 5.40149 L 20.5 5.40442 L 20.667 5.50793 C 21.0483 5.76279 21.3673 6.10252 21.5977 6.5011 C 21.8608 6.95647 21.9995 7.47322 22 7.99915 L 22 16.0011 C 21.9995 16.5271 21.8608 17.0438 21.5977 17.4991 C 21.3344 17.9546 20.9556 18.3328 20.5 18.5958 L 20.4961 18.5988 L 13.4961 22.5988 L 13.4951 22.5978 C 13.0401 22.8594 12.5249 22.9982 12 22.9982 C 11.4748 22.9982 10.9591 22.8597 10.5039 22.5978 L 10.5039 22.5988 L 3.50391 18.5988 L 3.5 18.5958 C 3.04444 18.3328 2.6656 17.9546 2.40234 17.4991 C 2.17201 17.1006 2.03732 16.655 2.00684 16.1974 L 2 16.0011 L 2 7.99915 L 2.00684 7.80188 C 2.03742 7.34461 2.17219 6.89942 2.40234 6.5011 C 2.66559 6.04569 3.04448 5.66746 3.5 5.40442 L 3.50391 5.40149 L 10.5039 1.40149 L 10.5039 1.40247 C 10.9591 1.14051 11.4748 1.00208 12 1.00208 Z M 12 3.00208 C 11.8245 3.00208 11.652 3.04813 11.5 3.13586 L 11.4961 3.13782 L 4.49902 7.13489 L 4.5 7.13586 C 4.34813 7.22355 4.22155 7.35025 4.13379 7.50208 C 4.04623 7.65377 4.00018 7.82594 4 8.0011 L 4 15.9991 L 4.00879 16.13 C 4.02601 16.2593 4.06815 16.3845 4.13379 16.4982 C 4.22077 16.6486 4.34602 16.7739 4.49609 16.8615 L 11.4961 20.8615 L 11.5 20.8644 L 11.6172 20.922 C 11.7381 20.9721 11.8682 20.9982 12 20.9982 C 12.1755 20.9982 12.348 20.9521 12.5 20.8644 L 12.5039 20.8615 L 19.5039 16.8615 C 19.654 16.7739 19.7792 16.6486 19.8662 16.4982 C 19.9536 16.3468 19.9996 16.175 20 16.0001 L 20 8.0011 L 19.9912 7.87024 C 19.974 7.74095 19.9318 7.61576 19.8662 7.50208 C 19.7785 7.35025 19.6519 7.22355 19.5 7.13586 L 19.5 7.13489 L 12.5039 3.13782 L 12.5 3.13586 C 12.348 3.04813 12.1755 3.00208 12 3.00208 Z" stroke-linecap="round" /></g><g transform="matrix(0.83 0 0 0.83 10 14.17)"  ><path style="stroke: none; stroke-width: 1; stroke-dasharray: none; stroke-linecap: butt; stroke-dashoffset: 0; stroke-linejoin: miter; stroke-miterlimit: 4; fill: rgb(255,107,26); fill-rule: nonzero; opacity: 1;"  transform=" translate(-12, -17)" d="M 11 22 L 11 12 C 11 11.4477 11.4477 11 12 11 C 12.5523 11 13 11.4477 13 12 L 13 22 C 13 22.5523 12.5523 23 12 23 C 11.4477 23 11 22.5523 11 22 Z" stroke-linecap="round" /></g><g transform="matrix(0.83 0 0 0.83 10 7.92)"  ><path style="stroke: none; stroke-width: 1; stroke-dasharray: none; stroke-linecap: butt; stroke-dashoffset: 0; stroke-linejoin: miter; stroke-miterlimit: 4; fill: rgb(255,107,26); fill-rule: nonzero; opacity: 1;"  transform=" translate(-12, -9.5)" d="M 20.2119 6.13276 C 20.6908 5.85785 21.3021 6.02309 21.5771 6.5019 C 21.852 6.98084 21.6868 7.59215 21.208 7.86714 L 12.498 12.8671 C 12.2283 13.0219 11.9043 13.0417 11.621 12.9257 L 11.5019 12.8671 L 2.79194 7.86714 L 2.706 7.81147 C 2.29433 7.51598 2.16507 6.95087 2.4228 6.5019 C 2.68054 6.05314 3.23357 5.87959 3.69624 6.08589 L 3.78804 6.13276 L 11.9999 10.8466 L 20.2119 6.13276 Z" stroke-linecap="round" /></g><g transform="matrix(0.83 0 0 0.83 10 5.7)"  ><path style="stroke: none; stroke-width: 1; stroke-dasharray: none; stroke-linecap: butt; stroke-dashoffset: 0; stroke-linejoin: miter; stroke-miterlimit: 4; fill: rgb(255,107,26); fill-rule: nonzero; opacity: 1;"  transform=" translate(-12, -6.85)" d="M 6.63179 3.77289 C 6.889 3.32365 7.4422 3.14993 7.90523 3.3559 L 7.99702 3.4018 L 16.997 8.55219 L 17.083 8.60687 C 17.4952 8.9017 17.6251 9.46706 17.3681 9.91644 C 17.111 10.3658 16.5578 10.5403 16.0947 10.3344 L 16.0029 10.2875 L 7.00288 5.13812 L 6.91695 5.08246 C 6.50487 4.78753 6.37468 4.22221 6.63179 3.77289 Z" stroke-linecap="round" /></g></g></g></svg>