<svg xmlns="http://www.w3.org/2000/svg" width="20" height="20"  viewBox="0 0 20 20"><g transform="matrix(1 0 0 1 0 0)"  ><g style=""   ><g transform="matrix(0.83 0 0 0.83 6.67 6.67)"  ><path style="stroke: none; stroke-width: 1; stroke-dasharray: none; stroke-linecap: butt; stroke-dashoffset: 0; stroke-linejoin: miter; stroke-miterlimit: 4; fill: rgb(85,85,231); fill-rule: nonzero; opacity: 1;"  transform=" translate(-8, -8)" d="M 13 8 C 13 5.23858 10.7614 3 8 3 C 5.23858 3 3 5.23858 3 8 C 3 10.7614 5.23858 13 8 13 C 10.7614 13 13 10.7614 13 8 Z M 15 8 C 15 11.866 11.866 15 8 15 C 4.13401 15 1 11.866 1 8 C 1 4.13401 4.13401 1 8 1 C 11.866 1 15 4.13401 15 8 Z" stroke-linecap="round" /></g><g transform="matrix(0.83 0 0 0.83 13.47 13.48)"  ><path style="stroke: none; stroke-width: 1; stroke-dasharray: none; stroke-linecap: butt; stroke-dashoffset: 0; stroke-linejoin: miter; stroke-miterlimit: 4; fill: rgb(85,85,231); fill-rule: nonzero; opacity: 1;"  transform=" translate(-16.17, -16.18)" d="M 17.1535 10.0204 C 17.3345 9.53539 17.8516 9.27392 18.342 9.4022 L 18.4396 9.43345 L 18.8468 9.59947 C 19.7841 10.0178 20.6201 10.6382 21.2931 11.4178 C 22.0621 12.3087 22.5942 13.3792 22.84 14.5301 C 23.0858 15.681 23.0374 16.8755 22.6994 18.0028 C 22.3612 19.1301 21.7441 20.1546 20.9054 20.9803 C 20.0667 21.806 19.033 22.4068 17.9005 22.7274 C 16.7681 23.0479 15.5729 23.0779 14.4259 22.8143 C 13.2789 22.5506 12.2168 22.0014 11.338 21.2186 C 10.5691 20.5335 9.96139 19.6886 9.55778 18.745 L 9.39762 18.3348 L 9.36832 18.2362 C 9.24806 17.744 9.51738 17.2308 10.005 17.0575 C 10.4931 16.8841 11.0264 17.1128 11.2433 17.5711 L 11.2824 17.6649 L 11.3966 17.9579 C 11.6849 18.6321 12.1187 19.236 12.6681 19.7254 C 13.2958 20.2846 14.0549 20.6767 14.8742 20.8651 C 15.6934 21.0533 16.5468 21.0315 17.3556 20.8026 C 18.1645 20.5736 18.903 20.1444 19.5021 19.5545 C 20.101 18.9648 20.5419 18.2337 20.7834 17.4286 C 21.0249 16.6234 21.0594 15.7702 20.8839 14.9481 C 20.7084 14.1259 20.3279 13.3609 19.7785 12.7245 C 19.2977 12.1676 18.701 11.7244 18.0314 11.4256 L 17.7404 11.3065 L 17.6466 11.2665 C 17.192 11.0423 16.9726 10.5055 17.1535 10.0204 Z" stroke-linecap="round" /></g><g transform="matrix(0.83 0 0 0.83 6.25 6.67)"  ><path style="stroke: none; stroke-width: 1; stroke-dasharray: none; stroke-linecap: butt; stroke-dashoffset: 0; stroke-linejoin: miter; stroke-miterlimit: 4; fill: rgb(85,85,231); fill-rule: nonzero; opacity: 1;"  transform=" translate(-7.5, -8)" d="M 7 10 L 7 7 C 6.44772 7 6 6.55228 6 6 C 6 5.44772 6.44772 5 7 5 L 8 5 L 8.10254 5.00488 C 8.60667 5.05621 9 5.48232 9 6 L 9 10 C 9 10.5523 8.55228 11 8 11 C 7.44772 11 7 10.5523 7 10 Z" stroke-linecap="round" /></g><g transform="matrix(0.83 0 0 0.83 13.33 13.04)"  ><path style="stroke: none; stroke-width: 1; stroke-dasharray: none; stroke-linecap: butt; stroke-dashoffset: 0; stroke-linejoin: miter; stroke-miterlimit: 4; fill: rgb(85,85,231); fill-rule: nonzero; opacity: 1;"  transform=" translate(-16, -15.65)" d="M 16.008 13.1681 C 16.3767 12.8046 16.9563 12.7854 17.3468 13.1085 L 17.422 13.1778 L 18.1222 13.8878 L 18.1896 13.964 C 18.4849 14.3308 18.4835 14.857 18.1857 15.2218 L 18.1173 15.297 L 15.297 18.1173 C 14.9065 18.5076 14.2735 18.5076 13.883 18.1173 C 13.4925 17.7268 13.4926 17.0938 13.883 16.7032 L 16.0002 14.5851 L 15.9982 14.5821 L 15.9298 14.506 C 15.6121 14.1109 15.6393 13.5317 16.008 13.1681 Z" stroke-linecap="round" /></g></g></g></svg>