<svg xmlns="http://www.w3.org/2000/svg" width="20" height="20"  viewBox="0 0 20 20"><g transform="matrix(1 0 0 1 0 0)"  ><g style=""   ><g transform="matrix(0.83 0 0 0.83 10.83 10.83)"  ><path style="stroke: none; stroke-width: 1; stroke-dasharray: none; stroke-linecap: butt; stroke-dashoffset: 0; stroke-linejoin: miter; stroke-miterlimit: 4; fill: rgb(255,255,255); fill-rule: nonzero; opacity: 1;"  transform=" translate(-13, -13)" d="M 12 17 L 12 9 C 12 8.44772 12.4477 8 13 8 C 13.5523 8 14 8.44772 14 9 L 14 17 C 14 17.5523 13.5523 18 13 18 C 12.4477 18 12 17.5523 12 17 Z" stroke-linecap="round" /></g><g transform="matrix(0.83 0 0 0.83 15 9.17)"  ><path style="stroke: none; stroke-width: 1; stroke-dasharray: none; stroke-linecap: butt; stroke-dashoffset: 0; stroke-linejoin: miter; stroke-miterlimit: 4; fill: rgb(255,255,255); fill-rule: nonzero; opacity: 1;"  transform=" translate(-18, -11)" d="M 17 17 L 17 5 C 17 4.44772 17.4477 4 18 4 C 18.5523 4 19 4.44772 19 5 L 19 17 C 19 17.5523 18.5523 18 18 18 C 17.4477 18 17 17.5523 17 17 Z" stroke-linecap="round" /></g><g transform="matrix(0.83 0 0 0.83 10 10)"  ><path style="stroke: none; stroke-width: 1; stroke-dasharray: none; stroke-linecap: butt; stroke-dashoffset: 0; stroke-linejoin: miter; stroke-miterlimit: 4; fill: rgb(255,255,255); fill-rule: nonzero; opacity: 1;"  transform=" translate(-12, -12)" d="M 2 19 L 2 3 C 2 2.44772 2.44772 2 3 2 C 3.55228 2 4 2.44772 4 3 L 4 19 C 4 19.2652 4.10543 19.5195 4.29297 19.707 C 4.48051 19.8946 4.73478 20 5 20 L 21 20 C 21.5523 20 22 20.4477 22 21 C 22 21.5523 21.5523 22 21 22 L 5 22 C 4.20435 22 3.44152 21.6837 2.87891 21.1211 C 2.3163 20.5585 2 19.7956 2 19 Z" stroke-linecap="round" /></g><g transform="matrix(0.83 0 0 0.83 6.67 12.92)"  ><path style="stroke: none; stroke-width: 1; stroke-dasharray: none; stroke-linecap: butt; stroke-dashoffset: 0; stroke-linejoin: miter; stroke-miterlimit: 4; fill: rgb(255,255,255); fill-rule: nonzero; opacity: 1;"  transform=" translate(-8, -15.5)" d="M 7 17 L 7 14 C 7 13.4477 7.44772 13 8 13 C 8.55228 13 9 13.4477 9 14 L 9 17 C 9 17.5523 8.55228 18 8 18 C 7.44772 18 7 17.5523 7 17 Z" stroke-linecap="round" /></g></g></g></svg>