<svg xmlns="http://www.w3.org/2000/svg" width="20" height="20"  viewBox="0 0 20 20"><g transform="matrix(1 0 0 1 0 0)"  ><g style=""   ><g transform="matrix(0.83 0 0 0.83 10 5.83)"  ><path style="stroke: none; stroke-width: 1; stroke-dasharray: none; stroke-linecap: butt; stroke-dashoffset: 0; stroke-linejoin: miter; stroke-miterlimit: 4; fill: rgb(85,85,231); fill-rule: nonzero; opacity: 1;"  transform=" translate(-12, -7)" d="M 13 10 L 13 5 L 11 5 L 11 10 C 11 10.5523 10.5523 11 10 11 C 9.44772 11 9 10.5523 9 10 L 9 5 C 9 4.46957 9.21087 3.96101 9.58594 3.58594 C 9.96101 3.21087 10.4696 3 11 3 L 13 3 C 13.5304 3 14.039 3.21087 14.4141 3.58594 C 14.7891 3.96101 15 4.46957 15 5 L 15 10 C 15 10.5523 14.5523 11 14 11 C 13.4477 11 13 10.5523 13 10 Z" stroke-linecap="round" /></g><g transform="matrix(0.83 0 0 0.83 14.17 8.75)"  ><path style="stroke: none; stroke-width: 1; stroke-dasharray: none; stroke-linecap: butt; stroke-dashoffset: 0; stroke-linejoin: miter; stroke-miterlimit: 4; fill: rgb(85,85,231); fill-rule: nonzero; opacity: 1;"  transform=" translate(-17, -10.5)" d="M 19 15 L 19 12 C 19 10.6739 18.4728 9.40253 17.5352 8.46484 C 16.6561 7.58579 15.4838 7.06719 14.248 7.00586 L 14 7 L 13.8975 6.99512 C 13.3933 6.94379 13 6.51768 13 6 C 13 5.44772 13.4477 5 14 5 L 14.3467 5.00879 C 16.077 5.09452 17.7194 5.819 18.9502 7.0498 C 20.263 8.36256 21 10.1435 21 12 L 21 15 C 21 15.5523 20.5523 16 20 16 C 19.4477 16 19 15.5523 19 15 Z" stroke-linecap="round" /></g><g transform="matrix(0.83 0 0 0.83 5.83 8.75)"  ><path style="stroke: none; stroke-width: 1; stroke-dasharray: none; stroke-linecap: butt; stroke-dashoffset: 0; stroke-linejoin: miter; stroke-miterlimit: 4; fill: rgb(85,85,231); fill-rule: nonzero; opacity: 1;"  transform=" translate(-7, -10.5)" d="M 3 15 L 3 12 C 3 10.1435 3.73705 8.36256 5.0498 7.0498 C 6.36256 5.73705 8.14348 5 10 5 C 10.5523 5 11 5.44772 11 6 C 11 6.55228 10.5523 7 10 7 C 8.67392 7 7.40253 7.52716 6.46484 8.46484 C 5.52716 9.40253 5 10.6739 5 12 L 5 15 C 5 15.5523 4.55228 16 4 16 C 3.44772 16 3 15.5523 3 15 Z" stroke-linecap="round" /></g><g transform="matrix(0.83 0 0 0.83 10 14.17)"  ><path style="stroke: none; stroke-width: 1; stroke-dasharray: none; stroke-linecap: butt; stroke-dashoffset: 0; stroke-linejoin: miter; stroke-miterlimit: 4; fill: rgb(85,85,231); fill-rule: nonzero; opacity: 1;"  transform=" translate(-12, -17)" d="M 3 16 L 3 18 L 21 18 L 21 16 L 3 16 Z M 23 18 C 23 19.1046 22.1046 20 21 20 L 3 20 C 1.89543 20 1 19.1046 1 18 L 1 16 C 1 14.8954 1.89543 14 3 14 L 21 14 C 22.1046 14 23 14.8954 23 16 L 23 18 Z" stroke-linecap="round" /></g></g></g></svg>