<svg xmlns="http://www.w3.org/2000/svg" width="12" height="12"  viewBox="0 0 12 12"><g transform="matrix(1 0 0 1 0 0)"  ><g style=""   ><g transform="matrix(0.5 0 0 0.5 6 6)"  ><path style="stroke: none; stroke-width: 1; stroke-dasharray: none; stroke-linecap: butt; stroke-dashoffset: 0; stroke-linejoin: miter; stroke-miterlimit: 4; fill: rgb(52,211,153); fill-rule: nonzero; opacity: 1;"  transform=" translate(-12, -12)" d="M 1.29298 6.29297 C 1.65909 5.92685 2.2381 5.90426 2.63087 6.22461 L 2.70704 6.29297 L 8.50001 12.0859 L 12.793 7.79297 L 12.8692 7.72461 C 13.2619 7.40426 13.8409 7.42685 14.207 7.79297 L 22.707 16.293 L 22.7754 16.3691 C 23.0958 16.7619 23.0732 17.3409 22.707 17.707 C 22.3409 18.0731 21.7619 18.0957 21.3692 17.7754 L 21.293 17.707 L 13.5 9.91406 L 9.20704 14.207 C 8.81652 14.5976 8.1835 14.5976 7.79298 14.207 L 1.29298 7.70703 L 1.22462 7.63086 C 0.904269 7.23809 0.926863 6.65909 1.29298 6.29297 Z" stroke-linecap="round" /></g><g transform="matrix(0.5 0 0 0.5 9.5 7)"  ><path style="stroke: none; stroke-width: 1; stroke-dasharray: none; stroke-linecap: butt; stroke-dashoffset: 0; stroke-linejoin: miter; stroke-miterlimit: 4; fill: rgb(52,211,153); fill-rule: nonzero; opacity: 1;"  transform=" translate(-19, -14)" d="M 21 11 C 21 10.4477 21.4477 10 22 10 C 22.5523 10 23 10.4477 23 11 L 23 17 C 23 17.5523 22.5523 18 22 18 L 16 18 C 15.4477 18 15 17.5523 15 17 C 15 16.4477 15.4477 16 16 16 L 21 16 L 21 11 Z" stroke-linecap="round" /></g></g></g></svg>