<svg xmlns="http://www.w3.org/2000/svg" viewBox="0 0 680 350"><g transform="matrix(1 0 0 1 0 0)"  ><g style=""   ><g transform="matrix(1 0 0 1 340 175)"  ><g style=""   ><g transform="matrix(1 0 0 1 15 117)"  ><line style="stroke: rgb(52,56,65); stroke-width: 1; stroke-dasharray: 3 3; stroke-linecap: butt; stroke-dashoffset: 0; stroke-linejoin: miter; stroke-miterlimit: 4; fill: none; fill-rule: nonzero; opacity: 0.3;"  x1="-295" y1="0" x2="295" y2="0" /></g><g transform="matrix(1 0 0 1 15 46.5)"  ><line style="stroke: rgb(52,56,65); stroke-width: 1; stroke-dasharray: 3 3; stroke-linecap: butt; stroke-dashoffset: 0; stroke-linejoin: miter; stroke-miterlimit: 4; fill: none; fill-rule: nonzero; opacity: 0.3;"  x1="-295" y1="0" x2="295" y2="0" /></g><g transform="matrix(1 0 0 1 15 -24)"  ><line style="stroke: rgb(52,56,65); stroke-width: 1; stroke-dasharray: 3 3; stroke-linecap: butt; stroke-dashoffset: 0; stroke-linejoin: miter; stroke-miterlimit: 4; fill: none; fill-rule: nonzero; opacity: 0.3;"  x1="-295" y1="0" x2="295" y2="0" /></g><g transform="matrix(1 0 0 1 15 -94.5)"  ><line style="stroke: rgb(52,56,65); stroke-width: 1; stroke-dasharray: 3 3; stroke-linecap: butt; stroke-dashoffset: 0; stroke-linejoin: miter; stroke-miterlimit: 4; fill: none; fill-rule: nonzero; opacity: 0.3;"  x1="-295" y1="0" x2="295" y2="0" /></g><g transform="matrix(1 0 0 1 15 -165)"  ><line style="stroke: rgb(52,56,65); stroke-width: 1; stroke-dasharray: 3 3; stroke-linecap: butt; stroke-dashoffset: 0; stroke-linejoin: miter; stroke-miterlimit: 4; fill: none; fill-rule: nonzero; opacity: 0.3;"  x1="-295" y1="0" x2="295" y2="0" /></g><g transform="matrix(1 0 0 1 -280 131.14)" style=""  ><text xml:space="preserve" font-family="Manrope" font-size="12" font-style="normal" font-weight="400" style="stroke: none; stroke-width: 1; stroke-dasharray: none; stroke-linecap: butt; stroke-dashoffset: 0; stroke-linejoin: miter; stroke-miterlimit: 4; fill: rgb(188,192,199); fill-rule: nonzero; opacity: 1; white-space: pre;" ></text></g><g transform="matrix(1 0 0 1 -162 131.14)" style=""  ><text xml:space="preserve" font-family="Manrope" font-size="12" font-style="normal" font-weight="400" style="stroke: none; stroke-width: 1; stroke-dasharray: none; stroke-linecap: butt; stroke-dashoffset: 0; stroke-linejoin: miter; stroke-miterlimit: 4; fill: rgb(188,192,199); fill-rule: nonzero; opacity: 1; white-space: pre;" ></text></g><g transform="matrix(1 0 0 1 -44 131.14)" style=""  ><text xml:space="preserve" font-family="Manrope" font-size="12" font-style="normal" font-weight="400" style="stroke: none; stroke-width: 1; stroke-dasharray: none; stroke-linecap: butt; stroke-dashoffset: 0; stroke-linejoin: miter; stroke-miterlimit: 4; fill: rgb(188,192,199); fill-rule: nonzero; opacity: 1; white-space: pre;" ></text></g><g transform="matrix(1 0 0 1 74 131.14)" style=""  ><text xml:space="preserve" font-family="Manrope" font-size="12" font-style="normal" font-weight="400" style="stroke: none; stroke-width: 1; stroke-dasharray: none; stroke-linecap: butt; stroke-dashoffset: 0; stroke-linejoin: miter; stroke-miterlimit: 4; fill: rgb(188,192,199); fill-rule: nonzero; opacity: 1; white-space: pre;" ></text></g><g transform="matrix(1 0 0 1 192 131.14)" style=""  ><text xml:space="preserve" font-family="Manrope" font-size="12" font-style="normal" font-weight="400" style="stroke: none; stroke-width: 1; stroke-dasharray: none; stroke-linecap: butt; stroke-dashoffset: 0; stroke-linejoin: miter; stroke-miterlimit: 4; fill: rgb(188,192,199); fill-rule: nonzero; opacity: 1; white-space: pre;" ></text></g><g transform="matrix(1 0 0 1 310 131.14)" style=""  ><text xml:space="preserve" font-family="Manrope" font-size="12" font-style="normal" font-weight="400" style="stroke: none; stroke-width: 1; stroke-dasharray: none; stroke-linecap: butt; stroke-dashoffset: 0; stroke-linejoin: miter; stroke-miterlimit: 4; fill: rgb(188,192,199); fill-rule: nonzero; opacity: 1; white-space: pre;" ></text></g><g transform="matrix(1 0 0 1 -289 113.14)" style=""  ><text xml:space="preserve" font-family="Manrope" font-size="12" font-style="normal" font-weight="400" style="stroke: none; stroke-width: 1; stroke-dasharray: none; stroke-linecap: butt; stroke-dashoffset: 0; stroke-linejoin: miter; stroke-miterlimit: 4; fill: rgb(188,192,199); fill-rule: nonzero; opacity: 1; white-space: pre;" ></text></g><g transform="matrix(1 0 0 1 -289 42.64)" style=""  ><text xml:space="preserve" font-family="Manrope" font-size="12" font-style="normal" font-weight="400" style="stroke: none; stroke-width: 1; stroke-dasharray: none; stroke-linecap: butt; stroke-dashoffset: 0; stroke-linejoin: miter; stroke-miterlimit: 4; fill: rgb(188,192,199); fill-rule: nonzero; opacity: 1; white-space: pre;" ></text></g><g transform="matrix(1 0 0 1 -289 -27.86)" style=""  ><text xml:space="preserve" font-family="Manrope" font-size="12" font-style="normal" font-weight="400" style="stroke: none; stroke-width: 1; stroke-dasharray: none; stroke-linecap: butt; stroke-dashoffset: 0; stroke-linejoin: miter; stroke-miterlimit: 4; fill: rgb(188,192,199); fill-rule: nonzero; opacity: 1; white-space: pre;" ></text></g><g transform="matrix(1 0 0 1 -289 -98.36)" style=""  ><text xml:space="preserve" font-family="Manrope" font-size="12" font-style="normal" font-weight="400" style="stroke: none; stroke-width: 1; stroke-dasharray: none; stroke-linecap: butt; stroke-dashoffset: 0; stroke-linejoin: miter; stroke-miterlimit: 4; fill: rgb(188,192,199); fill-rule: nonzero; opacity: 1; white-space: pre;" ></text></g><g transform="matrix(1 0 0 1 -289 -168.86)" style=""  ><text xml:space="preserve" font-family="Manrope" font-size="12" font-style="normal" font-weight="400" style="stroke: none; stroke-width: 1; stroke-dasharray: none; stroke-linecap: butt; stroke-dashoffset: 0; stroke-linejoin: miter; stroke-miterlimit: 4; fill: rgb(188,192,199); fill-rule: nonzero; opacity: 1; white-space: pre;" ></text></g><g transform="matrix(1 0 0 1 15 -2.85)"  ><linearGradient id="SVGID_colorXarajat_1875" gradientUnits="objectBoundingBox" gradientTransform="matrix(1 0 0 1 0 0)"  x1="0" y1="0" x2="0" y2="1"><stop offset="5%" style="stop-color:rgb(255,142,77);stop-opacity: 0.3"/><stop offset="95%" style="stop-color:rgb(255,142,77);stop-opacity: 0"/></linearGradient><path style="stroke: none; stroke-width: 3; stroke-dasharray: none; stroke-linecap: butt; stroke-dashoffset: 0; stroke-linejoin: miter; stroke-miterlimit: 4; fill: url(#SVGID_colorXarajat_1875); fill-rule: nonzero; opacity: 1;"  transform=" translate(-355, -172.15)" d="M 60 133.375 C 99.333 121.038 138.667 108.7 178 108.7 C 217.333 108.7 256.667 122.8 296 122.8 C 335.333 122.8 374.667 76.975 414 76.975 C 453.333 76.975 492.667 98.125 532 98.125 C 571.333 98.125 610.667 75.213 650 52.3 L 650 292 C 610.667 292 571.333 292 532 292 C 492.667 292 453.333 292 414 292 C 374.667 292 335.333 292 296 292 C 256.667 292 217.333 292 178 292 C 138.667 292 99.333 292 60 292 Z" stroke-linecap="round" /></g><g transform="matrix(1 0 0 1 15 -82.16)"  ><path style="stroke: rgb(255,142,77); stroke-width: 3; stroke-dasharray: none; stroke-linecap: butt; stroke-dashoffset: 0; stroke-linejoin: miter; stroke-miterlimit: 4; fill: none; fill-rule: nonzero; opacity: 1;"  transform=" translate(-355, -92.84)" d="M 60 133.375 C 99.333 121.038 138.667 108.7 178 108.7 C 217.333 108.7 256.667 122.8 296 122.8 C 335.333 122.8 374.667 76.975 414 76.975 C 453.333 76.975 492.667 98.125 532 98.125 C 571.333 98.125 610.667 75.213 650 52.3" stroke-linecap="round" /></g><g transform="matrix(1 0 0 1 15 2.44)"  ><linearGradient id="SVGID_colorPrognoz_1876" gradientUnits="objectBoundingBox" gradientTransform="matrix(1 0 0 1 0 0)"  x1="0" y1="0" x2="0" y2="1"><stop offset="5%" style="stop-color:rgb(61,242,255);stop-opacity: 0.3"/><stop offset="95%" style="stop-color:rgb(61,242,255);stop-opacity: 0"/></linearGradient><path style="stroke: none; stroke-width: 3; stroke-dasharray: 5 5; stroke-linecap: butt; stroke-dashoffset: 0; stroke-linejoin: miter; stroke-miterlimit: 4; fill: url(#SVGID_colorPrognoz_1876); fill-rule: nonzero; opacity: 1;"  transform=" translate(-355, -177.44)" d="M 60 143.95 C 99.333 133.669 138.667 123.388 178 115.75 C 217.333 108.113 256.667 103.413 296 98.125 C 335.333 92.838 374.667 86.375 414 84.025 C 453.333 81.675 492.667 82.85 532 80.5 C 571.333 78.15 610.667 70.513 650 62.875 L 650 292 C 610.667 292 571.333 292 532 292 C 492.667 292 453.333 292 414 292 C 374.667 292 335.333 292 296 292 C 256.667 292 217.333 292 178 292 C 138.667 292 99.333 292 60 292 Z" stroke-linecap="round" /></g><g transform="matrix(1 0 0 1 15 -71.59)"  ><path style="stroke: rgb(61,242,255); stroke-width: 3; stroke-dasharray: 5 5; stroke-linecap: butt; stroke-dashoffset: 0; stroke-linejoin: miter; stroke-miterlimit: 4; fill: none; fill-rule: nonzero; opacity: 1;"  transform=" translate(-355, -103.41)" d="M 60 143.95 C 99.333 133.669 138.667 123.388 178 115.75 C 217.333 108.113 256.667 103.413 296 98.125 C 335.333 92.838 374.667 86.375 414 84.025 C 453.333 81.675 492.667 82.85 532 80.5 C 571.333 78.15 610.667 70.513 650 62.875" stroke-linecap="round" /></g></g></g></g></g></svg>