<svg xmlns="http://www.w3.org/2000/svg" width="20" height="20"  viewBox="0 0 20 20"><g transform="matrix(1 0 0 1 0 0)"  ><g style=""   ><g transform="matrix(0.83 0 0 0.83 10 10)"  ><path style="stroke: none; stroke-width: 1; stroke-dasharray: none; stroke-linecap: butt; stroke-dashoffset: 0; stroke-linejoin: miter; stroke-miterlimit: 4; fill: rgb(34,211,238); fill-rule: nonzero; opacity: 1;"  transform=" translate(-12, -12)" d="M 19 4 C 19 3.44772 18.5523 3 18 3 L 6 3 C 5.44772 3 5 3.44772 5 4 L 5 20 C 5 20.5523 5.44772 21 6 21 L 18 21 C 18.5523 21 19 20.5523 19 20 L 19 4 Z M 21 20 C 21 21.6569 19.6569 23 18 23 L 6 23 C 4.34315 23 3 21.6569 3 20 L 3 4 C 3 2.34315 4.34315 1 6 1 L 18 1 C 19.6569 1 21 2.34315 21 4 L 21 20 Z" stroke-linecap="round" /></g><g transform="matrix(0.83 0 0 0.83 10 5)"  ><path style="stroke: none; stroke-width: 1; stroke-dasharray: none; stroke-linecap: butt; stroke-dashoffset: 0; stroke-linejoin: miter; stroke-miterlimit: 4; fill: rgb(34,211,238); fill-rule: nonzero; opacity: 1;"  transform=" translate(-12, -6)" d="M 16 5 C 16.5523 5 17 5.44772 17 6 C 17 6.55228 16.5523 7 16 7 L 8 7 C 7.44772 7 7 6.55228 7 6 C 7 5.44772 7.44772 5 8 5 L 16 5 Z" stroke-linecap="round" /></g><g transform="matrix(0.83 0 0 0.83 13.33 13.33)"  ><path style="stroke: none; stroke-width: 1; stroke-dasharray: none; stroke-linecap: butt; stroke-dashoffset: 0; stroke-linejoin: miter; stroke-miterlimit: 4; fill: rgb(34,211,238); fill-rule: nonzero; opacity: 1;"  transform=" translate(-16, -16)" d="M 15 18 L 15 14 C 15 13.4477 15.4477 13 16 13 C 16.5523 13 17 13.4477 17 14 L 17 18 C 17 18.5523 16.5523 19 16 19 C 15.4477 19 15 18.5523 15 18 Z" stroke-linecap="round" /></g><g transform="matrix(0.83 0 0 0.83 13.34 8.33)"  ><path style="stroke: none; stroke-width: 1; stroke-dasharray: none; stroke-linecap: butt; stroke-dashoffset: 0; stroke-linejoin: miter; stroke-miterlimit: 4; fill: rgb(34,211,238); fill-rule: nonzero; opacity: 1;"  transform=" translate(-16, -10)" d="M 16.0098 9 L 16.1123 9.00488 C 16.6165 9.05611 17.0098 9.48224 17.0098 10 C 17.0098 10.5178 16.6165 10.9439 16.1123 10.9951 L 16.0098 11 L 16 11 C 15.4477 11 15 10.5523 15 10 C 15 9.44772 15.4477 9 16 9 L 16.0098 9 Z" stroke-linecap="round" /></g><g transform="matrix(0.83 0 0 0.83 10 8.33)"  ><path style="stroke: none; stroke-width: 1; stroke-dasharray: none; stroke-linecap: butt; stroke-dashoffset: 0; stroke-linejoin: miter; stroke-miterlimit: 4; fill: rgb(34,211,238); fill-rule: nonzero; opacity: 1;"  transform=" translate(-12, -10)" d="M 12.0098 9 L 12.1123 9.00488 C 12.6165 9.05611 13.0098 9.48224 13.0098 10 C 13.0098 10.5178 12.6165 10.9439 12.1123 10.9951 L 12.0098 11 L 12 11 C 11.4477 11 11 10.5523 11 10 C 11 9.44772 11.4477 9 12 9 L 12.0098 9 Z" stroke-linecap="round" /></g><g transform="matrix(0.83 0 0 0.83 6.67 8.33)"  ><path style="stroke: none; stroke-width: 1; stroke-dasharray: none; stroke-linecap: butt; stroke-dashoffset: 0; stroke-linejoin: miter; stroke-miterlimit: 4; fill: rgb(34,211,238); fill-rule: nonzero; opacity: 1;"  transform=" translate(-8, -10)" d="M 8.00977 9 L 8.1123 9.00488 C 8.61655 9.05611 9.00977 9.48224 9.00977 10 C 9.00977 10.5178 8.61655 10.9439 8.1123 10.9951 L 8.00977 11 L 8 11 C 7.44772 11 7 10.5523 7 10 C 7 9.44772 7.44772 9 8 9 L 8.00977 9 Z" stroke-linecap="round" /></g><g transform="matrix(0.83 0 0 0.83 10 11.67)"  ><path style="stroke: none; stroke-width: 1; stroke-dasharray: none; stroke-linecap: butt; stroke-dashoffset: 0; stroke-linejoin: miter; stroke-miterlimit: 4; fill: rgb(34,211,238); fill-rule: nonzero; opacity: 1;"  transform=" translate(-12, -14)" d="M 12.0098 13 L 12.1123 13.0049 C 12.6165 13.0561 13.0098 13.4822 13.0098 14 C 13.0098 14.5178 12.6165 14.9439 12.1123 14.9951 L 12.0098 15 L 12 15 C 11.4477 15 11 14.5523 11 14 C 11 13.4477 11.4477 13 12 13 L 12.0098 13 Z" stroke-linecap="round" /></g><g transform="matrix(0.83 0 0 0.83 6.67 11.67)"  ><path style="stroke: none; stroke-width: 1; stroke-dasharray: none; stroke-linecap: butt; stroke-dashoffset: 0; stroke-linejoin: miter; stroke-miterlimit: 4; fill: rgb(34,211,238); fill-rule: nonzero; opacity: 1;"  transform=" translate(-8, -14)" d="M 8.00977 13 L 8.1123 13.0049 C 8.61655 13.0561 9.00977 13.4822 9.00977 14 C 9.00977 14.5178 8.61655 14.9439 8.1123 14.9951 L 8.00977 15 L 8 15 C 7.44772 15 7 14.5523 7 14 C 7 13.4477 7.44772 13 8 13 L 8.00977 13 Z" stroke-linecap="round" /></g><g transform="matrix(0.83 0 0 0.83 10 15)"  ><path style="stroke: none; stroke-width: 1; stroke-dasharray: none; stroke-linecap: butt; stroke-dashoffset: 0; stroke-linejoin: miter; stroke-miterlimit: 4; fill: rgb(34,211,238); fill-rule: nonzero; opacity: 1;"  transform=" translate(-12, -18)" d="M 12.0098 17 L 12.1123 17.0049 C 12.6165 17.0561 13.0098 17.4822 13.0098 18 C 13.0098 18.5178 12.6165 18.9439 12.1123 18.9951 L 12.0098 19 L 12 19 C 11.4477 19 11 18.5523 11 18 C 11 17.4477 11.4477 17 12 17 L 12.0098 17 Z" stroke-linecap="round" /></g><g transform="matrix(0.83 0 0 0.83 6.67 15)"  ><path style="stroke: none; stroke-width: 1; stroke-dasharray: none; stroke-linecap: butt; stroke-dashoffset: 0; stroke-linejoin: miter; stroke-miterlimit: 4; fill: rgb(34,211,238); fill-rule: nonzero; opacity: 1;"  transform=" translate(-8, -18)" d="M 8.00977 17 L 8.1123 17.0049 C 8.61655 17.0561 9.00977 17.4822 9.00977 18 C 9.00977 18.5178 8.61655 18.9439 8.1123 18.9951 L 8.00977 19 L 8 19 C 7.44772 19 7 18.5523 7 18 C 7 17.4477 7.44772 17 8 17 L 8.00977 17 Z" stroke-linecap="round" /></g></g></g></svg>