<svg xmlns="http://www.w3.org/2000/svg" width="16" height="16"  viewBox="0 0 16 16"><g transform="matrix(1 0 0 1 0 0)"  ><g style=""   ><g transform="matrix(0.67 0 0 0.67 8 8)"  ><path style="stroke: none; stroke-width: 1; stroke-dasharray: none; stroke-linecap: butt; stroke-dashoffset: 0; stroke-linejoin: miter; stroke-miterlimit: 4; fill: rgb(249,115,22); fill-rule: nonzero; opacity: 1;"  transform=" translate(-12, -12)" d="M 2 19 L 2 5 C 2 4.20435 2.3163 3.44152 2.87891 2.87891 C 3.44152 2.3163 4.20435 2 5 2 L 15.2139 2 C 16.0016 2.01122 16.7525 2.33302 17.3057 2.89355 L 17.3066 2.89258 L 21.1074 6.69336 L 21.1064 6.69336 C 21.6673 7.2466 21.9888 7.99816 22 8.78613 L 22 19 C 22 19.7957 21.6837 20.5585 21.1211 21.1211 C 20.5585 21.6837 19.7957 22 19 22 L 5 22 C 4.20435 22 3.44152 21.6837 2.87891 21.1211 C 2.3163 20.5585 2 19.7956 2 19 Z M 4 19 C 4 19.2652 4.10543 19.5195 4.29297 19.707 C 4.48051 19.8946 4.73478 20 5 20 L 19 20 C 19.2652 20 19.5195 19.8946 19.707 19.707 C 19.8946 19.5195 20 19.2652 20 19 L 20 8.81445 L 19.9941 8.71582 C 19.9684 8.48852 19.865 8.27577 19.7002 8.11426 L 19.6924 8.10742 L 19.6924 8.10645 L 15.8857 4.2998 C 15.7242 4.13501 15.5115 4.03162 15.2842 4.00586 L 15.1855 4 L 5 4 C 4.73478 4 4.48051 4.10543 4.29297 4.29297 C 4.10543 4.48051 4 4.73478 4 5 L 4 19 Z" stroke-linecap="round" /></g><g transform="matrix(0.67 0 0 0.67 8 11.33)"  ><path style="stroke: none; stroke-width: 1; stroke-dasharray: none; stroke-linecap: butt; stroke-dashoffset: 0; stroke-linejoin: miter; stroke-miterlimit: 4; fill: rgb(249,115,22); fill-rule: nonzero; opacity: 1;"  transform=" translate(-12, -17)" d="M 16 21 L 16 14 L 8 14 L 8 21 C 8 21.5523 7.55228 22 7 22 C 6.44772 22 6 21.5523 6 21 L 6 14 C 6 13.4696 6.21087 12.961 6.58594 12.5859 C 6.96101 12.2109 7.46957 12 8 12 L 16 12 C 16.5304 12 17.039 12.2109 17.4141 12.5859 C 17.7891 12.961 18 13.4696 18 14 L 18 21 C 18 21.5523 17.5523 22 17 22 C 16.4477 22 16 21.5523 16 21 Z" stroke-linecap="round" /></g><g transform="matrix(0.67 0 0 0.67 7.33 3.67)"  ><path style="stroke: none; stroke-width: 1; stroke-dasharray: none; stroke-linecap: butt; stroke-dashoffset: 0; stroke-linejoin: miter; stroke-miterlimit: 4; fill: rgb(249,115,22); fill-rule: nonzero; opacity: 1;"  transform=" translate(-11, -5.5)" d="M 6 7 L 6 3 C 6 2.44772 6.44772 2 7 2 C 7.55228 2 8 2.44772 8 3 L 8 7 L 15 7 C 15.5523 7 16 7.44772 16 8 C 16 8.55228 15.5523 9 15 9 L 8 9 C 7.46957 9 6.96101 8.78913 6.58594 8.41406 C 6.21087 8.03899 6 7.53043 6 7 Z" stroke-linecap="round" /></g></g></g></svg>