<svg xmlns="http://www.w3.org/2000/svg" width="24" height="24"  viewBox="0 0 24 24"><g transform="matrix(1 0 0 1 0 0)"  ><g style=""   ><g transform="matrix(1 0 0 1 9 15)"  ><path style="stroke: none; stroke-width: 1; stroke-dasharray: none; stroke-linecap: butt; stroke-dashoffset: 0; stroke-linejoin: miter; stroke-miterlimit: 4; fill: rgb(192,132,252); fill-rule: nonzero; opacity: 1;"  transform=" translate(-9, -15)" d="M 14.2928 11.293 C 14.6833 10.9025 15.3163 10.9026 15.7068 11.293 C 16.0974 11.6835 16.0974 12.3165 15.7068 12.707 L 7.3338 21.0801 C 6.78511 21.6287 6.05335 21.9519 5.28204 21.9903 L 5.12677 21.9942 C 4.29903 21.9941 3.50505 21.6654 2.91974 21.0801 C 2.33444 20.4948 2.00569 19.7008 2.00568 18.8731 C 2.00568 18.0453 2.33446 17.2514 2.91974 16.666 L 11.2928 8.29299 L 11.369 8.22463 C 11.7617 7.90421 12.3407 7.92692 12.7068 8.29299 C 13.0728 8.65898 13.0962 9.23811 12.7762 9.63088 L 12.7068 9.70705 L 4.3338 18.0801 C 4.1236 18.2904 4.00568 18.5757 4.00568 18.8731 C 4.00569 19.1704 4.12358 19.4558 4.3338 19.666 C 4.54404 19.8763 4.82946 19.9941 5.12677 19.9942 L 5.2381 19.9893 C 5.49465 19.9638 5.73581 19.8499 5.91974 19.666 L 14.2928 11.293 Z" stroke-linecap="round" /></g><g transform="matrix(1 0 0 1 20 13)"  ><path style="stroke: none; stroke-width: 1; stroke-dasharray: none; stroke-linecap: butt; stroke-dashoffset: 0; stroke-linejoin: miter; stroke-miterlimit: 4; fill: rgb(192,132,252); fill-rule: nonzero; opacity: 1;"  transform=" translate(-20, -13)" d="M 21.3691 10.2246 C 21.7619 9.90427 22.3409 9.92686 22.707 10.293 C 23.0731 10.6591 23.0957 11.2381 22.7754 11.6309 L 22.707 11.707 L 18.707 15.707 C 18.3165 16.0976 17.6835 16.0976 17.293 15.707 C 16.9024 15.3165 16.9024 14.6835 17.293 14.293 L 21.293 10.293 L 21.3691 10.2246 Z" stroke-linecap="round" /></g><g transform="matrix(1 0 0 1 15.25 8.73)"  ><path style="stroke: none; stroke-width: 1; stroke-dasharray: none; stroke-linecap: butt; stroke-dashoffset: 0; stroke-linejoin: miter; stroke-miterlimit: 4; fill: rgb(192,132,252); fill-rule: nonzero; opacity: 1;"  transform=" translate(-15.25, -8.73)" d="M 18 8.1719 L 18 7.41409 L 16.0332 5.44729 C 15.1618 4.57639 14.0017 4.05955 12.7774 3.99123 L 12.5313 3.9844 L 11.4697 3.97659 C 11.8259 4.43107 12.1288 4.92669 12.3672 5.45608 C 12.7837 6.38128 12.9993 7.38479 13 8.39944 L 13 9.58596 L 14.4141 11 L 15.1719 11 L 15.4688 11.0147 C 16.1554 11.083 16.8008 11.3867 17.293 11.8789 L 19.207 13.793 L 19.2754 13.8692 C 19.5957 14.2619 19.5731 14.8409 19.207 15.2071 C 18.8409 15.5731 18.2619 15.5957 17.8691 15.2754 L 17.793 15.2071 L 15.8789 13.293 C 15.7148 13.1289 15.4995 13.0277 15.2705 13.0049 L 15.1719 13 L 14 13 C 13.7348 13 13.4805 12.8946 13.293 12.7071 L 11.293 10.7071 C 11.1054 10.5195 11 10.2652 11 10 L 11 8.40041 C 10.9995 7.66848 10.8435 6.94478 10.543 6.27737 C 10.2425 5.61009 9.80438 5.01387 9.25684 4.52834 L 9.25489 4.52639 L 8.33497 3.70608 C 8.02431 3.42917 7.91694 2.989 8.06641 2.60061 C 8.21591 2.21224 8.5907 1.95716 9.00684 1.95998 L 12.5449 1.9844 L 12.8887 1.99514 C 14.6028 2.09075 16.2273 2.81298 17.4473 4.03225 L 17.4473 4.03323 L 19.707 6.29299 L 19.7734 6.36623 C 19.9193 6.54419 20 6.76794 20 7.00002 L 20 8.1719 L 20.0049 8.27053 C 20.0277 8.49946 20.1289 8.71486 20.293 8.87893 L 22.207 10.793 L 22.2754 10.8692 C 22.5957 11.2619 22.5731 11.8409 22.207 12.2071 C 21.8409 12.5731 21.2619 12.5957 20.8691 12.2754 L 20.793 12.2071 L 18.8789 10.293 C 18.3867 9.80086 18.083 9.15537 18.0147 8.46877 L 18 8.1719 Z" stroke-linecap="round" /></g></g></g></svg>