<svg class="" width="251" height="350" viewBox="0 0 251 350" xmlns="http://www.w3.org/2000/svg">
        <path d="M 0,0 L 190.74137931034483,0 A 4,4 0 0 1 194.74137931034483,4 L 194.74137931034483,17 A 4,4 0 0 1 190.74137931034483,21 L 0,21 L 0,21 L 0,0 L 0,0 Z" fill="rgba(61,242,255,1)" data-series-index="0" data-legend="sarf" data-value="45" /><path d="M 0,25.666666666666668 L 169.10344827586206,25.666666666666668 A 4,4 0 0 1 173.10344827586206,29.666666666666668 L 173.10344827586206,42.66666666666667 A 4,4 0 0 1 169.10344827586206,46.66666666666667 L 0,46.66666666666667 L 0,46.66666666666667 L 0,25.666666666666668 L 0,25.666666666666668 Z" fill="rgba(52,56,65,1)" data-series-index="1" data-legend="limit" data-value="40" /><path d="M 0,75.83333333333334 L 134.48275862068965,75.83333333333334 A 4,4 0 0 1 138.48275862068965,79.83333333333334 L 138.48275862068965,92.83333333333334 A 4,4 0 0 1 134.48275862068965,96.83333333333334 L 0,96.83333333333334 L 0,96.83333333333334 L 0,75.83333333333334 L 0,75.83333333333334 Z" fill="rgba(61,242,255,1)" data-series-index="0" data-legend="sarf" data-value="32" /><path d="M 0,101.50000000000001 L 147.4655172413793,101.50000000000001 A 4,4 0 0 1 151.4655172413793,105.50000000000001 L 151.4655172413793,118.50000000000001 A 4,4 0 0 1 147.4655172413793,122.50000000000001 L 0,122.50000000000001 L 0,122.50000000000001 L 0,101.50000000000001 L 0,101.50000000000001 Z" fill="rgba(52,56,65,1)" data-series-index="1" data-legend="limit" data-value="35" /><path d="M 0,151.66666666666669 L 247,151.66666666666669 A 4,4 0 0 1 251,155.66666666666669 L 251,168.66666666666669 A 4,4 0 0 1 247,172.66666666666669 L 0,172.66666666666669 L 0,172.66666666666669 L 0,151.66666666666669 L 0,151.66666666666669 Z" fill="rgba(61,242,255,1)" data-series-index="0" data-legend="sarf" data-value="58" /><path d="M 0,177.33333333333334 L 212.3793103448276,177.33333333333334 A 4,4 0 0 1 216.3793103448276,181.33333333333334 L 216.3793103448276,194.33333333333334 A 4,4 0 0 1 212.3793103448276,198.33333333333334 L 0,198.33333333333334 L 0,198.33333333333334 L 0,177.33333333333334 L 0,177.33333333333334 Z" fill="rgba(52,56,65,1)" data-series-index="1" data-legend="limit" data-value="50" /><path d="M 0,227.5 L 99.86206896551724,227.5 A 4,4 0 0 1 103.86206896551724,231.5 L 103.86206896551724,244.5 A 4,4 0 0 1 99.86206896551724,248.5 L 0,248.5 L 0,248.5 L 0,227.5 L 0,227.5 Z" fill="rgba(61,242,255,1)" data-series-index="0" data-legend="sarf" data-value="24" /><path d="M 0,253.16666666666666 L 125.82758620689654,253.16666666666666 A 4,4 0 0 1 129.82758620689654,257.16666666666663 L 129.82758620689654,270.16666666666663 A 4,4 0 0 1 125.82758620689654,274.16666666666663 L 0,274.16666666666663 L 0,274.16666666666663 L 0,253.16666666666666 L 0,253.16666666666666 Z" fill="rgba(52,56,65,1)" data-series-index="1" data-legend="limit" data-value="30" /><path d="M 0,303.3333333333333 L 173.43103448275863,303.3333333333333 A 4,4 0 0 1 177.43103448275863,307.3333333333333 L 177.43103448275863,320.3333333333333 A 4,4 0 0 1 173.43103448275863,324.3333333333333 L 0,324.3333333333333 L 0,324.3333333333333 L 0,303.3333333333333 L 0,303.3333333333333 Z" fill="rgba(61,242,255,1)" data-series-index="0" data-legend="sarf" data-value="41" /><path d="M 0,329 L 190.74137931034483,329 A 4,4 0 0 1 194.74137931034483,333 L 194.74137931034483,346 A 4,4 0 0 1 190.74137931034483,350 L 0,350 L 0,350 L 0,329 L 0,329 Z" fill="rgba(52,56,65,1)" data-series-index="1" data-legend="limit" data-value="45" />
      </svg>