<svg xmlns="http://www.w3.org/2000/svg" width="16" height="16"  viewBox="0 0 16 16"><g transform="matrix(1 0 0 1 0 0)"  ><g style=""   ><g transform="matrix(0.67 0 0 0.67 8.33 6.33)"  ><path style="stroke: none; stroke-width: 1; stroke-dasharray: none; stroke-linecap: butt; stroke-dashoffset: 0; stroke-linejoin: miter; stroke-miterlimit: 4; fill: rgb(249,115,22); fill-rule: nonzero; opacity: 1;"  transform=" translate(-12.5, -9.5)" d="M 18 13 C 17.7348 13 17.4805 13.1054 17.293 13.293 C 17.1054 13.4805 17 13.7348 17 14 L 17.0049 14.0986 C 17.0276 14.3276 17.1288 14.5429 17.293 14.707 C 17.4805 14.8946 17.7348 15 18 15 L 21 15 L 21 13 L 18 13 Z M 5 4 C 4.73478 4 4.48051 4.10543 4.29297 4.29297 C 4.10543 4.48051 4 4.73478 4 5 L 4.00488 5.09863 C 4.02757 5.32763 4.12883 5.54289 4.29297 5.70703 C 4.48051 5.89457 4.73478 6 5 6 L 18 6 L 18 4 L 5 4 Z M 20 6 C 20.5304 6 21.039 6.21086 21.4141 6.58594 C 21.7891 6.96101 22 7.46957 22 8 L 22 11.2695 C 22.1498 11.3561 22.2896 11.4615 22.4141 11.5859 C 22.7891 11.961 23 12.4696 23 13 L 23 15 C 23 15.5304 22.7891 16.039 22.4141 16.4141 C 22.039 16.7891 21.5304 17 21 17 L 18 17 C 17.2043 17 16.4415 16.6837 15.8789 16.1211 C 15.3867 15.6289 15.0829 14.9835 15.0146 14.2969 L 15 14 C 15 13.2043 15.3163 12.4415 15.8789 11.8789 C 16.4415 11.3163 17.2043 11 18 11 L 20 11 L 20 8 L 5 8 C 4.20435 8 3.44152 7.6837 2.87891 7.12109 C 2.38671 6.6289 2.08291 5.98351 2.01465 5.29688 L 2 5 C 2 4.20435 2.3163 3.44152 2.87891 2.87891 C 3.44152 2.3163 4.20435 2 5 2 L 18 2 L 18.1973 2.00977 C 18.6553 2.05515 19.0858 2.25765 19.4141 2.58594 C 19.7891 2.96101 20 3.46957 20 4 L 20 6 Z" stroke-linecap="round" /></g><g transform="matrix(0.67 0 0 0.67 8 8.67)"  ><path style="stroke: none; stroke-width: 1; stroke-dasharray: none; stroke-linecap: butt; stroke-dashoffset: 0; stroke-linejoin: miter; stroke-miterlimit: 4; fill: rgb(249,115,22); fill-rule: nonzero; opacity: 1;"  transform=" translate(-12, -13)" d="M 2 19 L 2 5 C 2 4.44772 2.44772 4 3 4 C 3.55228 4 4 4.44772 4 5 L 4 19 C 4 19.2652 4.10543 19.5195 4.29297 19.707 C 4.48051 19.8946 4.73478 20 5 20 L 20 20 L 20 16 C 20 15.4477 20.4477 15 21 15 C 21.5523 15 22 15.4477 22 16 L 22 20 C 22 20.5304 21.7891 21.039 21.4141 21.4141 C 21.039 21.7891 20.5304 22 20 22 L 5 22 C 4.20435 22 3.44152 21.6837 2.87891 21.1211 C 2.3163 20.5585 2 19.7956 2 19 Z" stroke-linecap="round" /></g></g></g></svg>