<svg xmlns="http://www.w3.org/2000/svg" width="24" height="24"  viewBox="0 0 24 24"><g transform="matrix(1 0 0 1 0 0)"  ><g style=""   ><g transform="matrix(1 0 0 1 12 12)"  ><path style="stroke: none; stroke-width: 1; stroke-dasharray: none; stroke-linecap: butt; stroke-dashoffset: 0; stroke-linejoin: miter; stroke-miterlimit: 4; fill: rgb(34,211,238); fill-rule: nonzero; opacity: 1;"  transform=" translate(-12, -12)" d="M 12 1.00205 C 12.5249 1.00205 13.0401 1.14076 13.4951 1.40244 L 13.4961 1.40147 L 20.4961 5.40147 L 20.5 5.4044 L 20.667 5.50791 C 21.0483 5.76276 21.3673 6.10249 21.5977 6.50108 C 21.8608 6.95645 21.9995 7.4732 22 7.99912 L 22 16.0011 C 21.9995 16.527 21.8608 17.0437 21.5977 17.4991 C 21.3344 17.9546 20.9556 18.3328 20.5 18.5958 L 20.4961 18.5987 L 13.4961 22.5987 L 13.4951 22.5978 C 13.0401 22.8594 12.5249 22.9981 12 22.9981 C 11.4748 22.9981 10.9591 22.8597 10.5039 22.5978 L 10.5039 22.5987 L 3.50391 18.5987 L 3.5 18.5958 C 3.04444 18.3328 2.6656 17.9546 2.40234 17.4991 C 2.17201 17.1005 2.03732 16.655 2.00684 16.1974 L 2 16.0011 L 2 7.99912 L 2.00684 7.80186 C 2.03742 7.34459 2.17219 6.89939 2.40234 6.50108 C 2.66559 6.04567 3.04448 5.66744 3.5 5.4044 L 3.50391 5.40147 L 10.5039 1.40147 L 10.5039 1.40244 C 10.9591 1.14048 11.4748 1.00205 12 1.00205 Z M 12 3.00205 C 11.8245 3.00205 11.652 3.0481 11.5 3.13584 L 11.4961 3.13779 L 4.49902 7.13486 L 4.5 7.13584 C 4.34813 7.22352 4.22155 7.35023 4.13379 7.50205 C 4.04623 7.65375 4.00018 7.82591 4 8.00108 L 4 15.9991 L 4.00879 16.13 C 4.02601 16.2593 4.06815 16.3845 4.13379 16.4981 C 4.22077 16.6486 4.34602 16.7738 4.49609 16.8614 L 11.4961 20.8614 L 11.5 20.8644 L 11.6172 20.922 C 11.7381 20.9721 11.8682 20.9981 12 20.9981 C 12.1755 20.9981 12.348 20.9521 12.5 20.8644 L 12.5039 20.8614 L 19.5039 16.8614 C 19.654 16.7738 19.7792 16.6486 19.8662 16.4981 C 19.9536 16.3467 19.9996 16.1749 20 16.0001 L 20 8.00108 L 19.9912 7.87022 C 19.974 7.74093 19.9318 7.61574 19.8662 7.50205 C 19.7785 7.35023 19.6519 7.22352 19.5 7.13584 L 19.5 7.13486 L 12.5039 3.13779 L 12.5 3.13584 C 12.348 3.0481 12.1755 3.00205 12 3.00205 Z" stroke-linecap="round" /></g><g transform="matrix(1 0 0 1 12 9.5)"  ><path style="stroke: none; stroke-width: 1; stroke-dasharray: none; stroke-linecap: butt; stroke-dashoffset: 0; stroke-linejoin: miter; stroke-miterlimit: 4; fill: rgb(34,211,238); fill-rule: nonzero; opacity: 1;"  transform=" translate(-12, -9.5)" d="M 20.2932 6.08691 C 20.7559 5.88008 21.3086 6.05306 21.5666 6.50195 C 21.8418 6.98078 21.6773 7.59198 21.1984 7.86719 L 12.4983 12.8672 C 12.1899 13.0444 11.8106 13.0443 11.5022 12.8672 L 2.80196 7.86719 L 2.71603 7.81152 C 2.30425 7.51596 2.17498 6.9509 2.43282 6.50195 C 2.69087 6.05295 3.24446 5.87985 3.70724 6.08691 L 3.79806 6.13281 L 11.9992 10.8457 L 20.2014 6.13281 L 20.2932 6.08691 Z" stroke-linecap="round" /></g><g transform="matrix(1 0 0 1 12 17)"  ><path style="stroke: none; stroke-width: 1; stroke-dasharray: none; stroke-linecap: butt; stroke-dashoffset: 0; stroke-linejoin: miter; stroke-miterlimit: 4; fill: rgb(34,211,238); fill-rule: nonzero; opacity: 1;"  transform=" translate(-12, -17)" d="M 11 22 L 11 12 C 11 11.4477 11.4477 11 12 11 C 12.5523 11 13 11.4477 13 12 L 13 22 C 13 22.5523 12.5523 23 12 23 C 11.4477 23 11 22.5523 11 22 Z" stroke-linecap="round" /></g></g></g></svg>