<svg xmlns="http://www.w3.org/2000/svg" width="16" height="16"  viewBox="0 0 16 16"><g transform="matrix(1 0 0 1 0 0)"  ><g style=""   ><g transform="matrix(0.67 0 0 0.67 8 8)"  ><path style="stroke: none; stroke-width: 1; stroke-dasharray: none; stroke-linecap: butt; stroke-dashoffset: 0; stroke-linejoin: miter; stroke-miterlimit: 4; fill: rgb(129,140,248); fill-rule: nonzero; opacity: 1;"  transform=" translate(-12, -12)" d="M 9.1455 7.13477 C 9.19489 6.1395 9.44545 5.17225 9.87402 4.28809 C 9.05386 4.51419 8.27068 4.87087 7.55566 5.34863 C 6.24014 6.22764 5.21488 7.47676 4.60937 8.93848 C 4.0039 10.4002 3.8447 12.0088 4.15332 13.5605 C 4.462 15.1124 5.22395 16.5384 6.34277 17.6572 C 7.46159 18.776 8.8876 19.538 10.4394 19.8467 C 11.9912 20.1553 13.5998 19.9961 15.0615 19.3906 C 16.5232 18.7851 17.7724 17.7599 18.6514 16.4443 C 19.1293 15.7291 19.4848 14.9454 19.7109 14.125 C 18.8269 14.5535 17.8603 14.8051 16.8652 14.8545 L 16.5 14.8643 C 14.547 14.8643 12.674 14.088 11.293 12.707 C 9.91195 11.326 9.13574 9.45304 9.13574 7.5 L 9.1455 7.13477 Z M 11.1426 7.76562 C 11.2083 9.09153 11.7639 10.3498 12.707 11.293 C 13.713 12.2989 15.0774 12.8643 16.5 12.8643 L 16.7656 12.8574 C 18.0915 12.7917 19.3498 12.2361 20.293 11.293 C 20.579 11.007 21.0091 10.9214 21.3828 11.0762 C 21.7564 11.231 22 11.5956 22 12 C 22 13.9778 21.4133 15.9112 20.3144 17.5557 C 19.2157 19.2001 17.6543 20.4824 15.8271 21.2393 C 13.9999 21.9961 11.9886 22.1935 10.0488 21.8076 C 8.10913 21.4217 6.32716 20.4697 4.92871 19.0713 C 3.53025 17.6728 2.57827 15.8909 2.19238 13.9512 C 1.80653 12.0114 2.00386 10.0001 2.76074 8.17285 C 3.51761 6.34567 4.79991 4.78434 6.44433 3.68555 C 8.08882 2.58673 10.0222 2 12 2 L 12.1494 2.01074 C 12.4923 2.06244 12.7883 2.29025 12.9238 2.61719 C 13.0593 2.94425 13.0107 3.31469 12.8047 3.59375 L 12.707 3.70703 C 11.7011 4.71297 11.1357 6.07739 11.1357 7.5 L 11.1426 7.76562 Z" stroke-linecap="round" /></g></g></g></svg>