<svg xmlns="http://www.w3.org/2000/svg" width="16" height="16"  viewBox="0 0 16 16"><g transform="matrix(1 0 0 1 0 0)"  ><g style=""   ><g transform="matrix(0.67 0 0 0.67 5.33 7.33)"  ><path style="stroke: none; stroke-width: 1; stroke-dasharray: none; stroke-linecap: butt; stroke-dashoffset: 0; stroke-linejoin: miter; stroke-miterlimit: 4; fill: rgb(52,211,153); fill-rule: nonzero; opacity: 1;"  transform=" translate(-8, -11)" d="M 4.29298 7.29298 C 4.65909 6.92686 5.2381 6.90427 5.63087 7.22462 L 5.70704 7.29298 L 11.707 13.293 L 11.7754 13.3692 C 12.0958 13.7619 12.0732 14.3409 11.707 14.707 C 11.3409 15.0732 10.7619 15.0958 10.3692 14.7754 L 10.293 14.707 L 4.29298 8.70704 L 4.22462 8.63087 C 3.90427 8.2381 3.92686 7.65909 4.29298 7.29298 Z" stroke-linecap="round" /></g><g transform="matrix(0.67 0 0 0.67 5.33 6.33)"  ><path style="stroke: none; stroke-width: 1; stroke-dasharray: none; stroke-linecap: butt; stroke-dashoffset: 0; stroke-linejoin: miter; stroke-miterlimit: 4; fill: rgb(52,211,153); fill-rule: nonzero; opacity: 1;"  transform=" translate(-8, -9.5)" d="M 11.168 4.44531 C 11.4743 3.98578 12.0951 3.86161 12.5547 4.16797 C 13.0142 4.47432 13.1384 5.09516 12.832 5.55469 L 10.832 8.55469 C 10.7955 8.60948 10.7536 8.66046 10.707 8.70703 L 4.70702 14.707 C 4.31649 15.0976 3.68348 15.0976 3.29295 14.707 C 2.90243 14.3165 2.90243 13.6835 3.29295 13.293 L 9.22264 7.36328 L 11.168 4.44531 Z" stroke-linecap="round" /></g><g transform="matrix(0.67 0 0 0.67 5.33 3.33)"  ><path style="stroke: none; stroke-width: 1; stroke-dasharray: none; stroke-linecap: butt; stroke-dashoffset: 0; stroke-linejoin: miter; stroke-miterlimit: 4; fill: rgb(52,211,153); fill-rule: nonzero; opacity: 1;"  transform=" translate(-8, -5)" d="M 14 4 C 14.5523 4 15 4.44772 15 5 C 15 5.55228 14.5523 6 14 6 L 2 6 C 1.44772 6 1 5.55228 1 5 C 1 4.44772 1.44772 4 2 4 L 14 4 Z" stroke-linecap="round" /></g><g transform="matrix(0.67 0 0 0.67 5 1.33)"  ><path style="stroke: none; stroke-width: 1; stroke-dasharray: none; stroke-linecap: butt; stroke-dashoffset: 0; stroke-linejoin: miter; stroke-miterlimit: 4; fill: rgb(52,211,153); fill-rule: nonzero; opacity: 1;"  transform=" translate(-7.5, -2)" d="M 8 1 C 8.55228 1 9 1.44772 9 2 C 9 2.55228 8.55228 3 8 3 L 7 3 C 6.44772 3 6 2.55228 6 2 C 6 1.44772 6.44772 1 7 1 L 8 1 Z" stroke-linecap="round" /></g><g transform="matrix(0.67 0 0 0.67 11.33 11.33)"  ><path style="stroke: none; stroke-width: 1; stroke-dasharray: none; stroke-linecap: butt; stroke-dashoffset: 0; stroke-linejoin: miter; stroke-miterlimit: 4; fill: rgb(52,211,153); fill-rule: nonzero; opacity: 1;"  transform=" translate(-17, -17)" d="M 17 11 C 17.3788 11 17.7251 11.214 17.8945 11.5527 L 22.8945 21.5527 L 22.9356 21.6465 C 23.1153 22.1204 22.9104 22.663 22.4473 22.8945 C 21.9842 23.1261 21.4276 22.9643 21.1563 22.5361 L 21.1055 22.4473 L 17 14.2363 L 12.8945 22.4473 C 12.6475 22.9412 12.0467 23.1415 11.5527 22.8945 C 11.0588 22.6475 10.8585 22.0467 11.1055 21.5527 L 16.1055 11.5527 L 16.1768 11.4316 C 16.3617 11.1637 16.6685 11 17 11 Z" stroke-linecap="round" /></g><g transform="matrix(0.67 0 0 0.67 11.33 12)"  ><path style="stroke: none; stroke-width: 1; stroke-dasharray: none; stroke-linecap: butt; stroke-dashoffset: 0; stroke-linejoin: miter; stroke-miterlimit: 4; fill: rgb(52,211,153); fill-rule: nonzero; opacity: 1;"  transform=" translate(-17, -18)" d="M 20 17 C 20.5523 17 21 17.4477 21 18 C 21 18.5523 20.5523 19 20 19 L 14 19 C 13.4477 19 13 18.5523 13 18 C 13 17.4477 13.4477 17 14 17 L 20 17 Z" stroke-linecap="round" /></g></g></g></svg>